<?plantuml 1.2026.2?><svg xmlns="http://www.w3.org/2000/svg" xmlns:xlink="http://www.w3.org/1999/xlink" contentStyleType="text/css" data-diagram-type="ACTIVITY" height="960px" preserveAspectRatio="none" style="width:368px;height:960px;background:#FFFFFF;" version="1.1" viewBox="0 0 368 960" width="368px" zoomAndPan="magnify"><title>Asylum Procedure &#8212; informationsfl&#246;de</title><defs/><g><g class="title" data-source-line="13"><text fill="#000000" font-family="Arial" font-size="14" font-weight="bold" lengthAdjust="spacing" textLength="263.71" x="50.8813" y="33.1318">Asylum Procedure &#8212; informationsfl&#246;de</text></g><ellipse cx="90.3584" cy="57.0986" fill="#222222" rx="10" ry="10" style="stroke:#222222;stroke-width:1;"/><rect fill="none" height="289.436" style="stroke:#000000;stroke-width:1.5;" width="346.4727" x="11" y="77.0986"/><path d="M52.1377,77.0986 L52.1377,86.1973 L42.1377,96.1973 L11,96.1973" fill="none" style="stroke:#000000;stroke-width:1.5;"/><text fill="#000000" font-family="Arial" font-size="14" lengthAdjust="spacing" textLength="31.1377" x="14" y="91.2305">Input</text><path d="M173.7197,106.1973 L173.7197,137.0947 L153.7197,141.0947 L173.7197,145.0947 L173.7197,175.9922 A0,0 0 0 0 173.7197,175.9922 L326.9541,175.9922 A0,0 0 0 0 326.9541,175.9922 L326.9541,116.1973 L316.9541,106.1973 L173.7197,106.1973 A0,0 0 0 0 173.7197,106.1973" fill="#FFF7D6" style="stroke:#7A6A2A;stroke-width:0.5;"/><path d="M316.9541,106.1973 L316.9541,116.1973 L326.9541,116.1973 L316.9541,106.1973" fill="#FFF7D6" style="stroke:#7A6A2A;stroke-width:0.5;"/><a href="../../../domains/registration/rules/rule-apr-028-005.md" target="_top" title="../../../domains/registration/rules/rule-apr-028-005.md" xlink:actuate="onRequest" xlink:href="../../../domains/registration/rules/rule-apr-028-005.md" xlink:show="new" xlink:title="../../../domains/registration/rules/rule-apr-028-005.md" xlink:type="simple"><text fill="#000000" font-family="Arial" font-size="13" lengthAdjust="spacing" text-decoration="underline" textLength="117.7744" x="179.7197" y="123.3911">RULE-APR-028-005</text></a><text fill="#000000" font-family="Arial" font-size="13" lengthAdjust="spacing" textLength="119.2407" x="179.7197" y="138.3398">Grunder, handlingar,</text><text fill="#000000" font-family="Arial" font-size="13" lengthAdjust="spacing" textLength="132.2344" x="179.7197" y="153.2886">faktorer som s&#246;kanden</text><text fill="#000000" font-family="Arial" font-size="13" lengthAdjust="spacing" textLength="52.0381" x="179.7197" y="168.2373">&#229;beropar</text><rect fill="#F8F8F8" height="33.7988" rx="12.5" ry="12.5" style="stroke:#333333;stroke-width:0.5;" width="126.7227" x="26.9971" y="124.1953"/><a href="../../../domains/registration/processes/lodging-an-application.md" target="_top" title="../../../domains/registration/processes/lodging-an-application.md" xlink:actuate="onRequest" xlink:href="../../../domains/registration/processes/lodging-an-application.md" xlink:show="new" xlink:title="../../../domains/registration/processes/lodging-an-application.md" xlink:type="simple"><text fill="#000000" font-family="Arial" font-size="12" lengthAdjust="spacing" text-decoration="underline" textLength="106.7227" x="36.9971" y="145.4512">Ans&#246;kan (inl&#228;mnad)</text></a><path d="M179.0547,185.9922 L179.0547,209.4153 L159.0547,213.4153 L179.0547,217.4153 L179.0547,240.8384 A0,0 0 0 0 179.0547,240.8384 L347.4727,240.8384 A0,0 0 0 0 347.4727,240.8384 L347.4727,195.9922 L337.4727,185.9922 L179.0547,185.9922 A0,0 0 0 0 179.0547,185.9922" fill="#FFF7D6" style="stroke:#7A6A2A;stroke-width:0.5;"/><path d="M337.4727,185.9922 L337.4727,195.9922 L347.4727,195.9922 L337.4727,185.9922" fill="#FFF7D6" style="stroke:#7A6A2A;stroke-width:0.5;"/><a href="../../../domains/registration/rules/rule-apr-027-002.md" target="_top" title="../../../domains/registration/rules/rule-apr-027-002.md" xlink:actuate="onRequest" xlink:href="../../../domains/registration/rules/rule-apr-027-002.md" xlink:show="new" xlink:title="../../../domains/registration/rules/rule-apr-027-002.md" xlink:type="simple"><text fill="#000000" font-family="Arial" font-size="13" lengthAdjust="spacing" text-decoration="underline" textLength="117.7744" x="185.0547" y="203.186">RULE-APR-027-002</text></a><text fill="#000000" font-family="Arial" font-size="13" lengthAdjust="spacing" textLength="147.418" x="185.0547" y="218.1348">Identitet, medborgarskap,</text><text fill="#000000" font-family="Arial" font-size="13" lengthAdjust="spacing" textLength="30.3354" x="185.0547" y="233.0835">familj</text><rect fill="#F8F8F8" height="33.7988" rx="12.5" ry="12.5" style="stroke:#333333;stroke-width:0.5;" width="137.3926" x="21.6621" y="196.5159"/><a href="../../../domains/registration/rules/rule-apr-027-002.md" target="_top" title="../../../domains/registration/rules/rule-apr-027-002.md" xlink:actuate="onRequest" xlink:href="../../../domains/registration/rules/rule-apr-027-002.md" xlink:show="new" xlink:title="../../../domains/registration/rules/rule-apr-027-002.md" xlink:type="simple"><text fill="#000000" font-family="Arial" font-size="12" lengthAdjust="spacing" text-decoration="underline" textLength="117.3926" x="31.6621" y="217.7717">Registreringsuppgifter</text></a><path d="M179.7168,257.7891 L179.7168,273.7378 L159.7168,277.7378 L179.7168,281.7378 L179.7168,297.6865 A0,0 0 0 0 179.7168,297.6865 L346.6875,297.6865 A0,0 0 0 0 346.6875,297.6865 L346.6875,267.7891 L336.6875,257.7891 L179.7168,257.7891 A0,0 0 0 0 179.7168,257.7891" fill="#FFF7D6" style="stroke:#7A6A2A;stroke-width:0.5;"/><path d="M336.6875,257.7891 L336.6875,267.7891 L346.6875,267.7891 L336.6875,257.7891" fill="#FFF7D6" style="stroke:#7A6A2A;stroke-width:0.5;"/><text fill="#000000" font-family="Arial" font-size="13" lengthAdjust="spacing" textLength="145.9707" x="185.7168" y="274.9829">Rapporter om s&#246;kandens</text><text fill="#000000" font-family="Arial" font-size="13" lengthAdjust="spacing" textLength="82.3862" x="185.7168" y="289.9316">ursprungsland</text><rect fill="#F8F8F8" height="33.7988" rx="12.5" ry="12.5" style="stroke:#333333;stroke-width:0.5;" width="138.7168" x="21" y="260.8384"/><text fill="#000000" font-family="Arial" font-size="12" lengthAdjust="spacing" textLength="118.7168" x="31" y="282.0942">Landinformation (COI)</text><path d="M166.3809,314.6372 L166.3809,330.5859 L146.3809,334.5859 L166.3809,338.5859 L166.3809,354.5347 A0,0 0 0 0 166.3809,354.5347 L316.7461,354.5347 A0,0 0 0 0 316.7461,354.5347 L316.7461,324.6372 L306.7461,314.6372 L166.3809,314.6372 A0,0 0 0 0 166.3809,314.6372" fill="#FFF7D6" style="stroke:#7A6A2A;stroke-width:0.5;"/><path d="M306.7461,314.6372 L306.7461,324.6372 L316.7461,324.6372 L306.7461,314.6372" fill="#FFF7D6" style="stroke:#7A6A2A;stroke-width:0.5;"/><text fill="#000000" font-family="Arial" font-size="13" lengthAdjust="spacing" textLength="129.3652" x="172.3809" y="331.8311">S&#246;kandens ber&#228;ttelse,</text><text fill="#000000" font-family="Arial" font-size="13" lengthAdjust="spacing" textLength="118.5107" x="172.3809" y="346.7798">trov&#228;rdighet, detaljer</text><rect fill="#F8F8F8" height="33.7988" rx="12.5" ry="12.5" style="stroke:#333333;stroke-width:0.5;" width="112.0449" x="34.3359" y="317.6865"/><text fill="#000000" font-family="Arial" font-size="12" lengthAdjust="spacing" textLength="92.0449" x="44.3359" y="338.9424">Personlig intervju</text><rect fill="none" height="240.5859" style="stroke:#000000;stroke-width:1.5;" width="317.8096" x="16.9854" y="376.5347"/><path d="M128.1504,376.5347 L128.1504,385.6333 L118.1504,395.6333 L16.9854,395.6333" fill="none" style="stroke:#000000;stroke-width:1.5;"/><text fill="#000000" font-family="Arial" font-size="14" lengthAdjust="spacing" textLength="101.165" x="19.9854" y="390.6665">Pr&#246;vning skapar</text><path d="M171.373,405.6333 L171.373,429.0564 L151.373,433.0564 L171.373,437.0564 L171.373,460.4795 A0,0 0 0 0 171.373,460.4795 L310.1475,460.4795 A0,0 0 0 0 310.1475,460.4795 L310.1475,415.6333 L300.1475,405.6333 L171.373,405.6333 A0,0 0 0 0 171.373,405.6333" fill="#FFF7D6" style="stroke:#7A6A2A;stroke-width:0.5;"/><path d="M300.1475,405.6333 L300.1475,415.6333 L310.1475,415.6333 L300.1475,405.6333" fill="#FFF7D6" style="stroke:#7A6A2A;stroke-width:0.5;"/><a href="../rules/rule-apr-038-001.md" target="_top" title="../rules/rule-apr-038-001.md" xlink:actuate="onRequest" xlink:href="../rules/rule-apr-038-001.md" xlink:show="new" xlink:title="../rules/rule-apr-038-001.md" xlink:type="simple"><text fill="#000000" font-family="Arial" font-size="13" lengthAdjust="spacing" text-decoration="underline" textLength="117.7744" x="177.373" y="422.8271">RULE-APR-038-001</text></a><text fill="#000000" font-family="Arial" font-size="13" lengthAdjust="spacing" textLength="94.6436" x="177.373" y="437.7759">Till&#229;tlig / otill&#229;tlig</text><text fill="#000000" font-family="Arial" font-size="13" lengthAdjust="spacing" textLength="102.6035" x="177.373" y="452.7246">(avvisningsgrund)</text><rect fill="#F8F8F8" height="33.7988" rx="12.5" ry="12.5" style="stroke:#333333;stroke-width:0.5;" width="122.0293" x="29.3438" y="416.157"/><a href="../rules/rule-apr-038-001.md" target="_top" title="../rules/rule-apr-038-001.md" xlink:actuate="onRequest" xlink:href="../rules/rule-apr-038-001.md" xlink:show="new" xlink:title="../rules/rule-apr-038-001.md" xlink:type="simple"><text fill="#000000" font-family="Arial" font-size="12" lengthAdjust="spacing" text-decoration="underline" textLength="102.0293" x="39.3438" y="437.4128">Admissibility-beslut</text></a><path d="M151.0381,470.4795 L151.0381,501.377 L131.0381,505.377 L151.0381,509.377 L151.0381,540.2744 A0,0 0 0 0 151.0381,540.2744 L289.8125,540.2744 A0,0 0 0 0 289.8125,540.2744 L289.8125,480.4795 L279.8125,470.4795 L151.0381,470.4795 A0,0 0 0 0 151.0381,470.4795" fill="#FFF7D6" style="stroke:#7A6A2A;stroke-width:0.5;"/><path d="M279.8125,470.4795 L279.8125,480.4795 L289.8125,480.4795 L279.8125,470.4795" fill="#FFF7D6" style="stroke:#7A6A2A;stroke-width:0.5;"/><a href="../rules/rule-apr-034-001.md" target="_top" title="../rules/rule-apr-034-001.md" xlink:actuate="onRequest" xlink:href="../rules/rule-apr-034-001.md" xlink:show="new" xlink:title="../rules/rule-apr-034-001.md" xlink:type="simple"><text fill="#000000" font-family="Arial" font-size="13" lengthAdjust="spacing" text-decoration="underline" textLength="117.7744" x="157.0381" y="487.6733">RULE-APR-034-001</text></a><text fill="#000000" font-family="Arial" font-size="13" lengthAdjust="spacing" textLength="86.6963" x="157.0381" y="502.6221">Flyktingstatus /</text><text fill="#000000" font-family="Arial" font-size="13" lengthAdjust="spacing" textLength="100.4326" x="157.0381" y="517.5708">subsidi&#228;rt skydd /</text><text fill="#000000" font-family="Arial" font-size="13" lengthAdjust="spacing" textLength="37.5781" x="157.0381" y="532.5195">avslag</text><rect fill="#F8F8F8" height="33.7988" rx="12.5" ry="12.5" style="stroke:#333333;stroke-width:0.5;" width="81.3594" x="49.6787" y="488.4775"/><a href="../rules/rule-apr-034-001.md" target="_top" title="../rules/rule-apr-034-001.md" xlink:actuate="onRequest" xlink:href="../rules/rule-apr-034-001.md" xlink:show="new" xlink:title="../rules/rule-apr-034-001.md" xlink:type="simple"><text fill="#000000" font-family="Arial" font-size="12" lengthAdjust="spacing" text-decoration="underline" textLength="61.3594" x="59.6787" y="509.7334">Beslut i sak</text></a><path d="M173.7314,550.2744 L173.7314,573.6975 L153.7314,577.6975 L173.7314,581.6975 L173.7314,605.1206 A0,0 0 0 0 173.7314,605.1206 L324.7949,605.1206 A0,0 0 0 0 324.7949,605.1206 L324.7949,560.2744 L314.7949,550.2744 L173.7314,550.2744 A0,0 0 0 0 173.7314,550.2744" fill="#FFF7D6" style="stroke:#7A6A2A;stroke-width:0.5;"/><path d="M314.7949,550.2744 L314.7949,560.2744 L324.7949,560.2744 L314.7949,550.2744" fill="#FFF7D6" style="stroke:#7A6A2A;stroke-width:0.5;"/><a href="../articles/apr-037.md" target="_top" title="../articles/apr-037.md" xlink:actuate="onRequest" xlink:href="../articles/apr-037.md" xlink:show="new" xlink:title="../articles/apr-037.md" xlink:type="simple"><text fill="#000000" font-family="Arial" font-size="13" lengthAdjust="spacing" text-decoration="underline" textLength="83.0781" x="179.7314" y="567.4683">ART-APR-037</text></a><text fill="#000000" font-family="Arial" font-size="13" lengthAdjust="spacing" textLength="127.1753" x="179.7314" y="582.417">Vid avslag &#8212; utf&#228;rdas</text><text fill="#000000" font-family="Arial" font-size="13" lengthAdjust="spacing" textLength="130.0635" x="179.7314" y="597.3657">samtidigt med beslutet</text><rect fill="#F8F8F8" height="33.7988" rx="12.5" ry="12.5" style="stroke:#333333;stroke-width:0.5;" width="126.7461" x="26.9854" y="560.7981"/><text fill="#000000" font-family="Arial" font-size="12" lengthAdjust="spacing" textLength="106.7461" x="36.9854" y="582.054">&#197;terv&#228;ndandebeslut</text><rect fill="none" height="280.3374" style="stroke:#000000;stroke-width:1.5;" width="315.5908" x="12.3184" y="627.1206"/><path d="M119.5869,627.1206 L119.5869,636.2192 L109.5869,646.2192 L12.3184,646.2192" fill="none" style="stroke:#000000;stroke-width:1.5;"/><text fill="#000000" font-family="Arial" font-size="14" lengthAdjust="spacing" textLength="97.2686" x="15.3184" y="641.2524">Konsumeras av</text><path d="M167.3857,667.6443 L167.3857,676.1187 L147.3857,680.1187 L167.3857,684.1187 L167.3857,692.593 A0,0 0 0 0 167.3857,692.593 L288.8247,692.593 A0,0 0 0 0 288.8247,692.593 L288.8247,677.6443 L278.8247,667.6443 L167.3857,667.6443 A0,0 0 0 0 167.3857,667.6443" fill="#FFF7D6" style="stroke:#7A6A2A;stroke-width:0.5;"/><path d="M278.8247,667.6443 L278.8247,677.6443 L288.8247,677.6443 L278.8247,667.6443" fill="#FFF7D6" style="stroke:#7A6A2A;stroke-width:0.5;"/><text fill="#000000" font-family="Arial" font-size="13" lengthAdjust="spacing" textLength="100.439" x="173.3857" y="684.8381">Vid beviljat skydd</text><rect fill="#F8F8F8" height="33.7988" rx="12.5" ry="12.5" style="stroke:#333333;stroke-width:0.5;" width="114.0547" x="33.3311" y="663.2192"/><text fill="#000000" font-family="Arial" font-size="12" lengthAdjust="spacing" textLength="94.0547" x="43.3311" y="684.4751">Uppeh&#229;llstillst&#229;nd</text><path d="M157.7207,707.0181 L157.7207,730.4412 L137.7207,734.4412 L157.7207,738.4412 L157.7207,761.8643 A0,0 0 0 0 157.7207,761.8643 L316.0205,761.8643 A0,0 0 0 0 316.0205,761.8643 L316.0205,717.0181 L306.0205,707.0181 L157.7207,707.0181 A0,0 0 0 0 157.7207,707.0181" fill="#FFF7D6" style="stroke:#7A6A2A;stroke-width:0.5;"/><path d="M306.0205,707.0181 L306.0205,717.0181 L316.0205,717.0181 L306.0205,707.0181" fill="#FFF7D6" style="stroke:#7A6A2A;stroke-width:0.5;"/><a href="../../../domains/return-border-procedure/rules/rule-ret-004-001.md" target="_top" title="../../../domains/return-border-procedure/rules/rule-ret-004-001.md" xlink:actuate="onRequest" xlink:href="../../../domains/return-border-procedure/rules/rule-ret-004-001.md" xlink:show="new" xlink:title="../../../domains/return-border-procedure/rules/rule-ret-004-001.md" xlink:type="simple"><text fill="#000000" font-family="Arial" font-size="13" lengthAdjust="spacing" text-decoration="underline" textLength="117.0444" x="163.7207" y="724.2119">RULE-RET-004-001</text></a><text fill="#000000" font-family="Arial" font-size="13" lengthAdjust="spacing" textLength="76.5908" x="163.7207" y="739.1606">Vid avslag &#8212;</text><text fill="#000000" font-family="Arial" font-size="13" lengthAdjust="spacing" textLength="137.2998" x="163.7207" y="754.1094">return border procedure</text><rect fill="#F8F8F8" height="33.7988" rx="12.5" ry="12.5" style="stroke:#333333;stroke-width:0.5;" width="94.7246" x="42.9961" y="717.5417"/><a href="../../../domains/return-border-procedure/processes/return-border-procedure.md" target="_top" title="../../../domains/return-border-procedure/processes/return-border-procedure.md" xlink:actuate="onRequest" xlink:href="../../../domains/return-border-procedure/processes/return-border-procedure.md" xlink:show="new" xlink:title="../../../domains/return-border-procedure/processes/return-border-procedure.md" xlink:type="simple"><text fill="#000000" font-family="Arial" font-size="12" lengthAdjust="spacing" text-decoration="underline" textLength="74.7246" x="52.9961" y="738.7976">&#197;terv&#228;ndande</text></a><path d="M142.7061,786.2893 L142.7061,794.7637 L122.7061,798.7637 L142.7061,802.7637 L142.7061,811.238 A0,0 0 0 0 142.7061,811.238 L306.0396,811.238 A0,0 0 0 0 306.0396,811.238 L306.0396,796.2893 L296.0396,786.2893 L142.7061,786.2893 A0,0 0 0 0 142.7061,786.2893" fill="#FFF7D6" style="stroke:#7A6A2A;stroke-width:0.5;"/><path d="M296.0396,786.2893 L296.0396,796.2893 L306.0396,796.2893 L296.0396,786.2893" fill="#FFF7D6" style="stroke:#7A6A2A;stroke-width:0.5;"/><text fill="#000000" font-family="Arial" font-size="13" lengthAdjust="spacing" textLength="142.3335" x="148.7061" y="803.4832">Beslutsstatus registreras</text><rect fill="#F8F8F8" height="33.7988" rx="12.5" ry="12.5" style="stroke:#333333;stroke-width:0.5;" width="64.6953" x="58.0107" y="781.8643"/><text fill="#000000" font-family="Arial" font-size="12" lengthAdjust="spacing" textLength="44.6953" x="68.0107" y="803.1201">Eurodac</text><path d="M178.3984,825.6631 L178.3984,856.5605 L158.3984,860.5605 L178.3984,864.5605 L178.3984,895.458 A0,0 0 0 0 178.3984,895.458 L317.9092,895.458 A0,0 0 0 0 317.9092,895.458 L317.9092,835.6631 L307.9092,825.6631 L178.3984,825.6631 A0,0 0 0 0 178.3984,825.6631" fill="#FFF7D6" style="stroke:#7A6A2A;stroke-width:0.5;"/><path d="M307.9092,825.6631 L307.9092,835.6631 L317.9092,835.6631 L307.9092,825.6631" fill="#FFF7D6" style="stroke:#7A6A2A;stroke-width:0.5;"/><a href="../rules/rule-apr-055-001.md" target="_top" title="../rules/rule-apr-055-001.md" xlink:actuate="onRequest" xlink:href="../rules/rule-apr-055-001.md" xlink:show="new" xlink:title="../rules/rule-apr-055-001.md" xlink:type="simple"><text fill="#000000" font-family="Arial" font-size="13" lengthAdjust="spacing" text-decoration="underline" textLength="117.7744" x="184.3984" y="842.8569">RULE-APR-055-001</text></a><text fill="#000000" font-family="Arial" font-size="13" lengthAdjust="spacing" textLength="118.5107" x="184.3984" y="857.8057">Tidigare beslut utg&#246;r</text><text fill="#000000" font-family="Arial" font-size="13" lengthAdjust="spacing" textLength="98.2744" x="184.3984" y="872.7544">referenspunkt f&#246;r</text><text fill="#000000" font-family="Arial" font-size="13" lengthAdjust="spacing" textLength="100.458" x="184.3984" y="887.7031">f&#246;rhandspr&#246;vning</text><rect fill="#F8F8F8" height="33.7988" rx="12.5" ry="12.5" style="stroke:#333333;stroke-width:0.5;" width="136.0801" x="22.3184" y="843.6611"/><a href="../processes/subsequent-application.md" target="_top" title="../processes/subsequent-application.md" xlink:actuate="onRequest" xlink:href="../processes/subsequent-application.md" xlink:show="new" xlink:title="../processes/subsequent-application.md" xlink:type="simple"><text fill="#000000" font-family="Arial" font-size="12" lengthAdjust="spacing" text-decoration="underline" textLength="116.0801" x="32.3184" y="864.917">Efterf&#246;ljande ans&#246;kan</text></a><ellipse cx="90.3584" cy="938.458" fill="none" rx="11" ry="11" style="stroke:#222222;stroke-width:1;"/><ellipse cx="90.3584" cy="938.458" fill="#222222" rx="6" ry="6" style="stroke:#222222;stroke-width:1;"/><line style="stroke:#181818;stroke-width:1;" x1="90.3584" x2="90.3584" y1="157.9941" y2="196.5159"/><polygon fill="#181818" points="86.3584,186.5159,90.3584,196.5159,94.3584,186.5159,90.3584,190.5159" style="stroke:#181818;stroke-width:1;"/><line style="stroke:#181818;stroke-width:1;" x1="90.3584" x2="90.3584" y1="230.3147" y2="260.8384"/><polygon fill="#181818" points="86.3584,250.8384,90.3584,260.8384,94.3584,250.8384,90.3584,254.8384" style="stroke:#181818;stroke-width:1;"/><line style="stroke:#181818;stroke-width:1;" x1="90.3584" x2="90.3584" y1="294.6372" y2="317.6865"/><polygon fill="#181818" points="86.3584,307.6865,90.3584,317.6865,94.3584,307.6865,90.3584,311.6865" style="stroke:#181818;stroke-width:1;"/><line style="stroke:#181818;stroke-width:1;" x1="90.3584" x2="90.3584" y1="67.0986" y2="124.1953"/><polygon fill="#181818" points="86.3584,114.1953,90.3584,124.1953,94.3584,114.1953,90.3584,118.1953" style="stroke:#181818;stroke-width:1;"/><line style="stroke:#181818;stroke-width:1;" x1="90.3584" x2="90.3584" y1="449.9558" y2="488.4775"/><polygon fill="#181818" points="86.3584,478.4775,90.3584,488.4775,94.3584,478.4775,90.3584,482.4775" style="stroke:#181818;stroke-width:1;"/><line style="stroke:#181818;stroke-width:1;" x1="90.3584" x2="90.3584" y1="522.2764" y2="560.7981"/><polygon fill="#181818" points="86.3584,550.7981,90.3584,560.7981,94.3584,550.7981,90.3584,554.7981" style="stroke:#181818;stroke-width:1;"/><line style="stroke:#181818;stroke-width:1;" x1="90.3584" x2="90.3584" y1="351.4854" y2="416.157"/><polygon fill="#181818" points="86.3584,406.157,90.3584,416.157,94.3584,406.157,90.3584,410.157" style="stroke:#181818;stroke-width:1;"/><line style="stroke:#181818;stroke-width:1;" x1="90.3584" x2="90.3584" y1="697.0181" y2="717.5417"/><polygon fill="#181818" points="86.3584,707.5417,90.3584,717.5417,94.3584,707.5417,90.3584,711.5417" style="stroke:#181818;stroke-width:1;"/><line style="stroke:#181818;stroke-width:1;" x1="90.3584" x2="90.3584" y1="751.3406" y2="781.8643"/><polygon fill="#181818" points="86.3584,771.8643,90.3584,781.8643,94.3584,771.8643,90.3584,775.8643" style="stroke:#181818;stroke-width:1;"/><line style="stroke:#181818;stroke-width:1;" x1="90.3584" x2="90.3584" y1="815.6631" y2="843.6611"/><polygon fill="#181818" points="86.3584,833.6611,90.3584,843.6611,94.3584,833.6611,90.3584,837.6611" style="stroke:#181818;stroke-width:1;"/><line style="stroke:#181818;stroke-width:1;" x1="90.3584" x2="90.3584" y1="594.5969" y2="663.2192"/><polygon fill="#181818" points="86.3584,653.2192,90.3584,663.2192,94.3584,653.2192,90.3584,657.2192" style="stroke:#181818;stroke-width:1;"/><line style="stroke:#181818;stroke-width:1;" x1="90.3584" x2="90.3584" y1="877.46" y2="927.458"/><polygon fill="#181818" points="86.3584,917.458,90.3584,927.458,94.3584,917.458,90.3584,921.458" style="stroke:#181818;stroke-width:1;"/><?plantuml-src hLPHJYD74FttALgR7v0m9YoiLycNsU04PPKW1_ApugFjxXcQwUcUL5LxPKKhvISto17W2hx0t2GdINNF60OpLeWKGDPCTLFr-hrNrIP3Lei9hcmenINuXLO1jFZxZx-4SPc7KfBn3ZDRhvKU3B0mhf8WIu6tKldFnkKYanPrP-M7LQN16bTyyDQ3EBDoKVGjNpkL7hGW2Dq4IcSoM9fwHp_9aj61aRQpBXTabePMulU146USFGSVd6hAVJLz7t_ZYWSkq4RVff_1bquQvqdlI36TZhzxjvrYF7atEPvmYW6I11eCE0sPI8zuS-6gG6zIjcy-VJey73L_ofVIE1o1pWqI92v7LMGPKUF8UfKpWqFfXhAgh5ca3OUb4XE7zRgGJkmPP-lxqacrVtFpBQTFgC7ajyGlGlnRCGYM2yLFBW73e-FtmwEZqrXYTltnV3Yvd6rYDpSfuVSGeYu7ubOwnUha4WxIGYOByg11e6Vr4pgbNLgg7-OQFDF1RzgfXF4rJBm0DsOWnmbSiqq30y1GLRd9ICF_my1JaIS6Kgnbu8AFnRfgEX2bLdCFJ04MijhGK1fxjtNGZyn5frt4teUVB_PxiCvOPWzy4j7b4DDQ0AoO-nmj1xVoNsf0xwp9kIdvlvTteIVvBu_v1CjHtnDfRim6DO5VrlUWU7Cybz8axPr-fjUNPuQ-X7gzTB6zuz4bTBszpUZRw9-lasrLQH3Dt5Xkp-5SemsqMxJTUPwKQMAjCbV6slg18WyZuUdnBItkoUNIO8ICUVJmVfyPNvGysPGyIs254IYB_m3vf0VoIGVorAuAYfX8Ka0nIa4CSpJAi234zAwKQkDooUBdMxZhFwFYzRrJKTo6qrtmedwBYB01DqwQpAvQNECMqwz6jQNId0-KHMl8neOeIs9iEKNpYwQSfjr6-P5lXr1gaCWvMvTSLvM-hH-inQWHKltWL0_aY6EkbznEikNXDVE30hZXF0tcORMvi3f3TSUEICLpAby_JVfBThp0MrZpvrwOdLzjOhsyfr2JMpIvnMFkBHxE0tWb5prm6zTYwoxOJCsavGicdpYA1jI_1PvpsnVFUPopMRrcJPWY8TjxwFKTSNhwiYEQs6CJixiaVyTelCNso-irj6na6dX-LS4L9B9DE3x4suZdOpkKjko8vAl1Fm00?></g></svg>