<svg xmlns="http://www.w3.org/2000/svg" xmlns:xlink="http://www.w3.org/1999/xlink" contentStyleType="text/css" data-diagram-type="ACTIVITY" height="632px" preserveAspectRatio="none" style="width:981px;height:632px;background:#FFFFFF;" version="1.1" viewBox="0 0 981 632" width="981px" zoomAndPan="magnify"><?plantuml 1.2026.6?><defs/><g><g class="title" data-source-line="17"><text fill="#000000" font-family="sans-serif" font-size="14" font-weight="700" lengthAdjust="spacing" textLength="180.4414" x="399.5063" y="32.9951">Lodging an application</text></g><ellipse cx="540.2432" cy="62.2969" fill="#222222" rx="10" ry="10" style="stroke:#222222;stroke-width:1;"/><path d="M703.5029,89.1484 L703.5029,105.2813 L683.5029,109.2813 L703.5029,113.2813 L703.5029,129.4141 A0,0 0 0 0 703.5029,129.4141 L954.1357,129.4141 A0,0 0 0 0 954.1357,129.4141 L954.1357,99.1484 L944.1357,89.1484 L703.5029,89.1484 A0,0 0 0 0 703.5029,89.1484" fill="#FEFFDD" style="stroke:#181818;stroke-width:0.5;"/><path d="M944.1357,89.1484 L944.1357,99.1484 L954.1357,99.1484 L944.1357,89.1484" fill="#FEFFDD" style="stroke:#181818;stroke-width:0.5;"/><text fill="#000000" font-family="sans-serif" font-size="13" lengthAdjust="spacing" textLength="229.2075" x="709.5029" y="106.2153">Tidsfrist: 21 dagar fr&#229;n registrering</text><text fill="#000000" font-family="sans-serif" font-size="13" lengthAdjust="spacing" textLength="229.6328" x="709.5029" y="121.3481">Vid massinfl&#246;de: senast 2 m&#229;nader</text><rect fill="#F1F1F1" height="33.9688" rx="12.5" ry="12.5" style="stroke:#181818;stroke-width:0.5;" width="286.5195" x="396.9834" y="92.2969"/><text fill="#000000" font-family="sans-serif" font-size="12" lengthAdjust="spacing" textLength="266.5195" x="406.9834" y="113.4355">S&#246;kanden kallas till angivet datum och plats</text><polygon fill="#F1F1F1" points="433.0442,149.4141,647.4421,149.4141,659.4421,161.4141,647.4421,173.4141,433.0442,173.4141,421.0442,161.4141,433.0442,149.4141" style="stroke:#181818;stroke-width:0.5;stroke-linejoin:miter;stroke-miterlimit:10;"/><text fill="#000000" font-family="sans-serif" font-size="11" lengthAdjust="spacing" textLength="214.3979" x="433.0442" y="165.2222">S&#246;kanden kan inst&#228;lla sig personligen?</text><text fill="#000000" font-family="sans-serif" font-size="11" lengthAdjust="spacing" textLength="18.0522" x="402.9919" y="158.8198">Nej</text><text fill="#000000" font-family="sans-serif" font-size="11" lengthAdjust="spacing" textLength="9.9849" x="659.4421" y="158.8198">Ja</text><polygon fill="#F1F1F1" points="173.71,183.4141,434.6162,183.4141,446.6162,195.4141,434.6162,207.4141,173.71,207.4141,161.71,195.4141,173.71,183.4141" style="stroke:#181818;stroke-width:0.5;stroke-linejoin:miter;stroke-miterlimit:10;"/><text fill="#000000" font-family="sans-serif" font-size="11" lengthAdjust="spacing" textLength="260.9063" x="173.71" y="199.2222">Formul&#228;rinl&#228;mning till&#229;ten enligt nationell r&#228;tt?</text><text fill="#000000" font-family="sans-serif" font-size="11" lengthAdjust="spacing" textLength="9.9849" x="151.7251" y="192.8198">Ja</text><text fill="#000000" font-family="sans-serif" font-size="11" lengthAdjust="spacing" textLength="18.0522" x="446.6162" y="192.8198">Nej</text><rect fill="#F1F1F1" height="33.9688" rx="12.5" ry="12.5" style="stroke:#181818;stroke-width:0.5;" width="271.4199" x="16" y="217.4141"/><text fill="#000000" font-family="sans-serif" font-size="12" lengthAdjust="spacing" textLength="251.4199" x="26" y="238.5527">S&#246;kanden l&#228;mnar in ans&#246;kan via formul&#228;r</text><rect fill="#F1F1F1" height="33.9688" rx="12.5" ry="12.5" style="stroke:#181818;stroke-width:0.5;" width="209.1523" x="352.04" y="217.4141"/><text fill="#000000" font-family="sans-serif" font-size="12" lengthAdjust="spacing" textLength="189.1523" x="362.04" y="238.5527">Nytt datum och plats meddelas</text><polygon fill="#F1F1F1" points="304.1631,257.3828,316.1631,269.3828,304.1631,281.3828,292.1631,269.3828,304.1631,257.3828" style="stroke:#181818;stroke-width:0.5;stroke-linejoin:miter;stroke-miterlimit:10;"/><rect fill="#F1F1F1" height="33.9688" rx="12.5" ry="12.5" style="stroke:#181818;stroke-width:0.5;" width="226.7598" x="662.9434" y="183.4141"/><text fill="#000000" font-family="sans-serif" font-size="12" lengthAdjust="spacing" textLength="206.7598" x="672.9434" y="204.5527">S&#246;kanden inst&#228;ller sig personligen</text><rect fill="#F1F1F1" height="33.9688" rx="12.5" ry="12.5" style="stroke:#181818;stroke-width:0.5;" width="370.2617" x="591.1924" y="252.3828"/><text fill="#000000" font-family="sans-serif" font-size="12" lengthAdjust="spacing" textLength="350.2617" x="601.1924" y="273.5215">S&#246;kanden l&#228;mnar in ans&#246;kan med faktorer och handlingar</text><polygon fill="#F1F1F1" points="540.2432,292.3516,552.2432,304.3516,540.2432,316.3516,528.2432,304.3516,540.2432,292.3516" style="stroke:#181818;stroke-width:0.5;stroke-linejoin:miter;stroke-miterlimit:10;"/><rect fill="#F1F1F1" height="33.9688" rx="12.5" ry="12.5" style="stroke:#181818;stroke-width:0.5;" width="244.9355" x="417.7754" y="336.3516"/><text fill="#000000" font-family="sans-serif" font-size="12" lengthAdjust="spacing" textLength="224.9355" x="427.7754" y="357.4902">Beh&#246;rig myndighet tar emot ans&#246;kan</text><rect fill="#F1F1F1" height="33.9688" rx="12.5" ry="12.5" style="stroke:#181818;stroke-width:0.5;" width="331.9473" x="374.2695" y="438.7227"/><text fill="#000000" font-family="sans-serif" font-size="12" lengthAdjust="spacing" textLength="311.9473" x="384.2695" y="459.8613">Beslutande myndigheten underr&#228;ttas utan dr&#246;jsm&#229;l</text><polygon fill="#F1F1F1" points="414.1755,390.3203,666.3108,390.3203,678.3108,402.3203,666.3108,414.3203,414.1755,414.3203,402.1755,402.3203,414.1755,390.3203" style="stroke:#181818;stroke-width:0.5;stroke-linejoin:miter;stroke-miterlimit:10;"/><text fill="#000000" font-family="sans-serif" font-size="11" lengthAdjust="spacing" textLength="18.0522" x="544.2432" y="424.5308">Nej</text><text fill="#000000" font-family="sans-serif" font-size="11" lengthAdjust="spacing" textLength="252.1353" x="414.1755" y="406.1284">Ans&#246;kan inl&#228;mnad till beslutande myndighet?</text><polygon fill="#F1F1F1" points="540.2432,492.6914,552.2432,504.6914,540.2432,516.6914,528.2432,504.6914,540.2432,492.6914" style="stroke:#181818;stroke-width:0.5;stroke-linejoin:miter;stroke-miterlimit:10;"/><rect fill="#F1F1F1" height="33.9688" rx="12.5" ry="12.5" style="stroke:#181818;stroke-width:0.5;" width="229.0449" x="425.7207" y="536.6914"/><text fill="#000000" font-family="sans-serif" font-size="12" lengthAdjust="spacing" textLength="209.0449" x="435.7207" y="557.8301">Tidsfristen f&#246;r pr&#246;vning b&#246;rjar l&#246;pa</text><ellipse cx="540.2432" cy="601.6602" fill="none" rx="11" ry="11" style="stroke:#222222;stroke-width:1;"/><ellipse cx="540.2432" cy="601.6602" fill="#222222" rx="6" ry="6" style="stroke:#222222;stroke-width:1;"/><line style="stroke:#181818;stroke-width:1;" x1="540.2432" x2="540.2432" y1="72.2969" y2="92.2969"/><polygon fill="#181818" points="536.2432,82.2969,540.2432,92.2969,544.2432,82.2969,540.2432,86.2969" style="stroke:#181818;stroke-width:1;stroke-linejoin:miter;stroke-miterlimit:10;"/><line style="stroke:#181818;stroke-width:1;" x1="161.71" x2="151.71" y1="195.4141" y2="195.4141"/><line style="stroke:#181818;stroke-width:1;" x1="151.71" x2="151.71" y1="195.4141" y2="217.4141"/><polygon fill="#181818" points="147.71,207.4141,151.71,217.4141,155.71,207.4141,151.71,211.4141" style="stroke:#181818;stroke-width:1;stroke-linejoin:miter;stroke-miterlimit:10;"/><line style="stroke:#181818;stroke-width:1;" x1="446.6162" x2="456.6162" y1="195.4141" y2="195.4141"/><line style="stroke:#181818;stroke-width:1;" x1="456.6162" x2="456.6162" y1="195.4141" y2="217.4141"/><polygon fill="#181818" points="452.6162,207.4141,456.6162,217.4141,460.6162,207.4141,456.6162,211.4141" style="stroke:#181818;stroke-width:1;stroke-linejoin:miter;stroke-miterlimit:10;"/><line style="stroke:#181818;stroke-width:1;" x1="151.71" x2="151.71" y1="251.3828" y2="269.3828"/><line style="stroke:#181818;stroke-width:1;" x1="151.71" x2="292.1631" y1="269.3828" y2="269.3828"/><polygon fill="#181818" points="282.1631,265.3828,292.1631,269.3828,282.1631,273.3828,286.1631,269.3828" style="stroke:#181818;stroke-width:1;stroke-linejoin:miter;stroke-miterlimit:10;"/><line style="stroke:#181818;stroke-width:1;" x1="456.6162" x2="456.6162" y1="251.3828" y2="269.3828"/><line style="stroke:#181818;stroke-width:1;" x1="456.6162" x2="316.1631" y1="269.3828" y2="269.3828"/><polygon fill="#181818" points="326.1631,265.3828,316.1631,269.3828,326.1631,273.3828,322.1631,269.3828" style="stroke:#181818;stroke-width:1;stroke-linejoin:miter;stroke-miterlimit:10;"/><line style="stroke:#181818;stroke-width:1;" x1="776.3232" x2="776.3232" y1="217.3828" y2="252.3828"/><polygon fill="#181818" points="772.3232,242.3828,776.3232,252.3828,780.3232,242.3828,776.3232,246.3828" style="stroke:#181818;stroke-width:1;stroke-linejoin:miter;stroke-miterlimit:10;"/><line style="stroke:#181818;stroke-width:1;" x1="421.0442" x2="304.1631" y1="161.4141" y2="161.4141"/><line style="stroke:#181818;stroke-width:1;" x1="304.1631" x2="304.1631" y1="161.4141" y2="183.4141"/><polygon fill="#181818" points="300.1631,173.4141,304.1631,183.4141,308.1631,173.4141,304.1631,177.4141" style="stroke:#181818;stroke-width:1;stroke-linejoin:miter;stroke-miterlimit:10;"/><line style="stroke:#181818;stroke-width:1;" x1="659.4421" x2="776.3232" y1="161.4141" y2="161.4141"/><line style="stroke:#181818;stroke-width:1;" x1="776.3232" x2="776.3232" y1="161.4141" y2="183.4141"/><polygon fill="#181818" points="772.3232,173.4141,776.3232,183.4141,780.3232,173.4141,776.3232,177.4141" style="stroke:#181818;stroke-width:1;stroke-linejoin:miter;stroke-miterlimit:10;"/><line style="stroke:#181818;stroke-width:1;" x1="304.1631" x2="304.1631" y1="281.3828" y2="304.3516"/><line style="stroke:#181818;stroke-width:1;" x1="304.1631" x2="528.2432" y1="304.3516" y2="304.3516"/><polygon fill="#181818" points="518.2432,300.3516,528.2432,304.3516,518.2432,308.3516,522.2432,304.3516" style="stroke:#181818;stroke-width:1;stroke-linejoin:miter;stroke-miterlimit:10;"/><line style="stroke:#181818;stroke-width:1;" x1="776.3232" x2="776.3232" y1="286.3516" y2="304.3516"/><line style="stroke:#181818;stroke-width:1;" x1="776.3232" x2="552.2432" y1="304.3516" y2="304.3516"/><polygon fill="#181818" points="562.2432,300.3516,552.2432,304.3516,562.2432,308.3516,558.2432,304.3516" style="stroke:#181818;stroke-width:1;stroke-linejoin:miter;stroke-miterlimit:10;"/><line style="stroke:#181818;stroke-width:1;" x1="540.2432" x2="540.2432" y1="126.2656" y2="149.4141"/><polygon fill="#181818" points="536.2432,139.4141,540.2432,149.4141,544.2432,139.4141,540.2432,143.4141" style="stroke:#181818;stroke-width:1;stroke-linejoin:miter;stroke-miterlimit:10;"/><line style="stroke:#181818;stroke-width:1;" x1="540.2432" x2="540.2432" y1="316.3516" y2="336.3516"/><polygon fill="#181818" points="536.2432,326.3516,540.2432,336.3516,544.2432,326.3516,540.2432,330.3516" style="stroke:#181818;stroke-width:1;stroke-linejoin:miter;stroke-miterlimit:10;"/><line style="stroke:#181818;stroke-width:1;" x1="540.2432" x2="540.2432" y1="414.3203" y2="438.7227"/><polygon fill="#181818" points="536.2432,428.7227,540.2432,438.7227,544.2432,428.7227,540.2432,432.7227" style="stroke:#181818;stroke-width:1;stroke-linejoin:miter;stroke-miterlimit:10;"/><line style="stroke:#181818;stroke-width:1;" x1="678.3108" x2="716.2168" y1="402.3203" y2="402.3203"/><polygon fill="#181818" points="712.2168,445.707,716.2168,455.707,720.2168,445.707,716.2168,449.707" style="stroke:#181818;stroke-width:1;stroke-linejoin:miter;stroke-miterlimit:10;"/><line style="stroke:#181818;stroke-width:1;" x1="716.2168" x2="716.2168" y1="402.3203" y2="504.6914"/><line style="stroke:#181818;stroke-width:1;" x1="716.2168" x2="552.2432" y1="504.6914" y2="504.6914"/><polygon fill="#181818" points="562.2432,500.6914,552.2432,504.6914,562.2432,508.6914,558.2432,504.6914" style="stroke:#181818;stroke-width:1;stroke-linejoin:miter;stroke-miterlimit:10;"/><line style="stroke:#181818;stroke-width:1;" x1="540.2432" x2="540.2432" y1="472.6914" y2="492.6914"/><polygon fill="#181818" points="536.2432,482.6914,540.2432,492.6914,544.2432,482.6914,540.2432,486.6914" style="stroke:#181818;stroke-width:1;stroke-linejoin:miter;stroke-miterlimit:10;"/><line style="stroke:#181818;stroke-width:1;" x1="540.2432" x2="540.2432" y1="370.3203" y2="390.3203"/><polygon fill="#181818" points="536.2432,380.3203,540.2432,390.3203,544.2432,380.3203,540.2432,384.3203" style="stroke:#181818;stroke-width:1;stroke-linejoin:miter;stroke-miterlimit:10;"/><line style="stroke:#181818;stroke-width:1;" x1="540.2432" x2="540.2432" y1="516.6914" y2="536.6914"/><polygon fill="#181818" points="536.2432,526.6914,540.2432,536.6914,544.2432,526.6914,540.2432,530.6914" style="stroke:#181818;stroke-width:1;stroke-linejoin:miter;stroke-miterlimit:10;"/><line style="stroke:#181818;stroke-width:1;" x1="540.2432" x2="540.2432" y1="570.6602" y2="590.6602"/><polygon fill="#181818" points="536.2432,580.6602,540.2432,590.6602,544.2432,580.6602,540.2432,584.6602" style="stroke:#181818;stroke-width:1;stroke-linejoin:miter;stroke-miterlimit:10;"/><?plantuml-src RLAxRkD03EptArWcvQMqYY0fhZWSqkHmFPsbLhHNN66NDf3_iN_1Fx0_5gxyEE4S5G943OV3uIXh9FYTV609W08uJP4_K3c9SqKngtEhzthQedWIs6ACM40vHaC7tfE2HzsDa3u6c29gwPoJf0IPmw0Eu0_xqcSkkeAd7mOEcA7FzIYGALWvKxRP1lpB7aOiXQMFzUHf1OK4Yy8JZ0P7JzcHU6Zipd4F3qjT0Yn5wy7qGU404-MI978WUNu47Gpqy4QRHsUJ05htpvJ7NQm76s_lKPe3RR5wL0DJwrMGsGgoTNCzgDweVk65gJqBWsOcsv3DIYbp6VQCq5-7TUSsYeMMWcQQjq-zinD6yfxCz6kZUEwTE_VVL2mKN6sW_ByFtHtsExKs3thSQhB3p386mqOp1vlso_ZLAmtrP2U6yTCgOR0SM5Y0ngGtgkvyfPShyyLdzEVyhAd4dJOX_qY-EPMDkiSPP6U5F1_50jd-Wy_rj2cMbRWGUekVjVGc6IP3xUTZh-rpOw8jRHDsBUvfSby0?></g></svg>