<svg xmlns="http://www.w3.org/2000/svg" xmlns:xlink="http://www.w3.org/1999/xlink" contentStyleType="text/css" data-diagram-type="ACTIVITY" height="576px" preserveAspectRatio="none" style="width:606px;height:576px;background:#FFFFFF;" version="1.1" viewBox="0 0 606 576" width="606px" zoomAndPan="magnify"><?plantuml 1.2026.6?><defs/><g><g class="title" data-source-line="12"><text fill="#000000" font-family="sans-serif" font-size="14" font-weight="700" lengthAdjust="spacing" textLength="83.5146" x="260.3687" y="32.9951">Relocation</text></g><ellipse cx="269.5952" cy="62.2969" fill="#222222" rx="10" ry="10" style="stroke:#222222;stroke-width:1;"/><rect fill="#F1F1F1" height="33.9688" rx="12.5" ry="12.5" style="stroke:#181818;stroke-width:0.5;" width="187.7656" x="175.7124" y="92.2969"/><text fill="#000000" font-family="sans-serif" font-size="12" lengthAdjust="spacing" textLength="167.7656" x="185.7124" y="113.4355">Migrationstryck konstateras</text><rect fill="#F1F1F1" height="33.9688" rx="12.5" ry="12.5" style="stroke:#181818;stroke-width:0.5;" width="187.7129" x="175.7388" y="146.2656"/><a href="../rules/rule-ammr-057-001.md" target="_top" title="../rules/rule-ammr-057-001.md" xlink:actuate="onRequest" xlink:href="../rules/rule-ammr-057-001.md" xlink:show="new" xlink:title="../rules/rule-ammr-057-001.md" xlink:type="simple"><text fill="#0000FF" font-family="sans-serif" font-size="12" lengthAdjust="spacing" text-decoration="underline" textLength="167.7129" x="185.7388" y="167.4043">Solidaritetspoolen aktiveras</text></a><rect fill="#F1F1F1" height="33.9688" rx="12.5" ry="12.5" style="stroke:#181818;stroke-width:0.5;" width="338.5098" x="100.3403" y="200.2344"/><text fill="#000000" font-family="sans-serif" font-size="12" lengthAdjust="spacing" textLength="318.5098" x="110.3403" y="221.373">F&#246;rm&#229;nsstaten identifierar s&#246;kande f&#246;r omf&#246;rdelning</text><rect fill="#F1F1F1" height="33.9688" rx="12.5" ry="12.5" style="stroke:#181818;stroke-width:0.5;" width="264.1777" x="137.5063" y="254.2031"/><text fill="#000000" font-family="sans-serif" font-size="12" lengthAdjust="spacing" textLength="244.1777" x="147.5063" y="275.3418">Omf&#246;rdelningsmedlemsstaten meddelas</text><polygon fill="#F1F1F1" points="201.2158,308.1719,337.9746,308.1719,349.9746,320.1719,337.9746,332.1719,201.2158,332.1719,189.2158,320.1719,201.2158,308.1719" style="stroke:#181818;stroke-width:0.5;stroke-linejoin:miter;stroke-miterlimit:10;"/><text fill="#000000" font-family="sans-serif" font-size="11" lengthAdjust="spacing" textLength="136.7588" x="201.2158" y="323.98">S&#228;kerhetssk&#228;l att v&#228;gra?</text><text fill="#000000" font-family="sans-serif" font-size="11" lengthAdjust="spacing" textLength="9.9849" x="179.231" y="317.5776">Ja</text><text fill="#000000" font-family="sans-serif" font-size="11" lengthAdjust="spacing" textLength="18.0522" x="349.9746" y="317.5776">Nej</text><rect fill="#F1F1F1" height="33.9688" rx="12.5" ry="12.5" style="stroke:#181818;stroke-width:0.5;" width="150.6934" x="46.6855" y="342.1719"/><text fill="#000000" font-family="sans-serif" font-size="12" lengthAdjust="spacing" textLength="130.6934" x="56.6855" y="363.3105">Omf&#246;rdelning avvisas</text><rect fill="#F1F1F1" height="33.9688" rx="12.5" ry="12.5" style="stroke:#181818;stroke-width:0.5;" width="212.0645" x="16" y="396.1406"/><a href="../rules/rule-ammr-063-001.md" target="_top" title="../rules/rule-ammr-063-001.md" xlink:actuate="onRequest" xlink:href="../rules/rule-ammr-063-001.md" xlink:show="new" xlink:title="../rules/rule-ammr-063-001.md" xlink:type="simple"><text fill="#0000FF" font-family="sans-serif" font-size="12" lengthAdjust="spacing" text-decoration="underline" textLength="192.0645" x="26" y="417.2793">Ansvarskompensation aktiveras</text></a><rect fill="#F1F1F1" height="33.9688" rx="12.5" ry="12.5" style="stroke:#181818;stroke-width:0.5;" width="338.1875" x="248.0645" y="342.1719"/><text fill="#000000" font-family="sans-serif" font-size="12" lengthAdjust="spacing" textLength="318.1875" x="258.0645" y="363.3105">Omf&#246;rdelningsmedlemsstaten bekr&#228;ftar mottagande</text><rect fill="#F1F1F1" height="33.9688" rx="12.5" ry="12.5" style="stroke:#181818;stroke-width:0.5;" width="173.2754" x="330.5205" y="396.1406"/><text fill="#000000" font-family="sans-serif" font-size="12" lengthAdjust="spacing" textLength="153.2754" x="340.5205" y="417.2793">&#214;verf&#246;ring inom 4 veckor</text><rect fill="#F1F1F1" height="33.9688" rx="12.5" ry="12.5" style="stroke:#181818;stroke-width:0.5;" width="306.9629" x="263.6768" y="450.1094"/><text fill="#000000" font-family="sans-serif" font-size="12" lengthAdjust="spacing" textLength="286.9629" x="273.6768" y="471.248">Omf&#246;rdelningsmedlemsstaten blir ansvarig stat</text><polygon fill="#F1F1F1" points="269.5952,490.0781,281.5952,502.0781,269.5952,514.0781,257.5952,502.0781,269.5952,490.0781" style="stroke:#181818;stroke-width:0.5;stroke-linejoin:miter;stroke-miterlimit:10;"/><ellipse cx="269.5952" cy="545.0781" fill="none" rx="11" ry="11" style="stroke:#222222;stroke-width:1;"/><ellipse cx="269.5952" cy="545.0781" fill="#222222" rx="6" ry="6" style="stroke:#222222;stroke-width:1;"/><line style="stroke:#181818;stroke-width:1;" x1="269.5952" x2="269.5952" y1="72.2969" y2="92.2969"/><polygon fill="#181818" points="265.5952,82.2969,269.5952,92.2969,273.5952,82.2969,269.5952,86.2969" style="stroke:#181818;stroke-width:1;stroke-linejoin:miter;stroke-miterlimit:10;"/><line style="stroke:#181818;stroke-width:1;" x1="269.5952" x2="269.5952" y1="126.2656" y2="146.2656"/><polygon fill="#181818" points="265.5952,136.2656,269.5952,146.2656,273.5952,136.2656,269.5952,140.2656" style="stroke:#181818;stroke-width:1;stroke-linejoin:miter;stroke-miterlimit:10;"/><line style="stroke:#181818;stroke-width:1;" x1="269.5952" x2="269.5952" y1="180.2344" y2="200.2344"/><polygon fill="#181818" points="265.5952,190.2344,269.5952,200.2344,273.5952,190.2344,269.5952,194.2344" style="stroke:#181818;stroke-width:1;stroke-linejoin:miter;stroke-miterlimit:10;"/><line style="stroke:#181818;stroke-width:1;" x1="269.5952" x2="269.5952" y1="234.2031" y2="254.2031"/><polygon fill="#181818" points="265.5952,244.2031,269.5952,254.2031,273.5952,244.2031,269.5952,248.2031" style="stroke:#181818;stroke-width:1;stroke-linejoin:miter;stroke-miterlimit:10;"/><line style="stroke:#181818;stroke-width:1;" x1="122.0322" x2="122.0322" y1="376.1406" y2="396.1406"/><polygon fill="#181818" points="118.0322,386.1406,122.0322,396.1406,126.0322,386.1406,122.0322,390.1406" style="stroke:#181818;stroke-width:1;stroke-linejoin:miter;stroke-miterlimit:10;"/><line style="stroke:#181818;stroke-width:1;" x1="417.1582" x2="417.1582" y1="376.1406" y2="396.1406"/><polygon fill="#181818" points="413.1582,386.1406,417.1582,396.1406,421.1582,386.1406,417.1582,390.1406" style="stroke:#181818;stroke-width:1;stroke-linejoin:miter;stroke-miterlimit:10;"/><line style="stroke:#181818;stroke-width:1;" x1="417.1582" x2="417.1582" y1="430.1094" y2="450.1094"/><polygon fill="#181818" points="413.1582,440.1094,417.1582,450.1094,421.1582,440.1094,417.1582,444.1094" style="stroke:#181818;stroke-width:1;stroke-linejoin:miter;stroke-miterlimit:10;"/><line style="stroke:#181818;stroke-width:1;" x1="189.2158" x2="122.0322" y1="320.1719" y2="320.1719"/><line style="stroke:#181818;stroke-width:1;" x1="122.0322" x2="122.0322" y1="320.1719" y2="342.1719"/><polygon fill="#181818" points="118.0322,332.1719,122.0322,342.1719,126.0322,332.1719,122.0322,336.1719" style="stroke:#181818;stroke-width:1;stroke-linejoin:miter;stroke-miterlimit:10;"/><line style="stroke:#181818;stroke-width:1;" x1="349.9746" x2="417.1582" y1="320.1719" y2="320.1719"/><line style="stroke:#181818;stroke-width:1;" x1="417.1582" x2="417.1582" y1="320.1719" y2="342.1719"/><polygon fill="#181818" points="413.1582,332.1719,417.1582,342.1719,421.1582,332.1719,417.1582,336.1719" style="stroke:#181818;stroke-width:1;stroke-linejoin:miter;stroke-miterlimit:10;"/><line style="stroke:#181818;stroke-width:1;" x1="122.0322" x2="122.0322" y1="430.1094" y2="502.0781"/><line style="stroke:#181818;stroke-width:1;" x1="122.0322" x2="257.5952" y1="502.0781" y2="502.0781"/><polygon fill="#181818" points="247.5952,498.0781,257.5952,502.0781,247.5952,506.0781,251.5952,502.0781" style="stroke:#181818;stroke-width:1;stroke-linejoin:miter;stroke-miterlimit:10;"/><line style="stroke:#181818;stroke-width:1;" x1="417.1582" x2="417.1582" y1="484.0781" y2="502.0781"/><line style="stroke:#181818;stroke-width:1;" x1="417.1582" x2="281.5952" y1="502.0781" y2="502.0781"/><polygon fill="#181818" points="291.5952,498.0781,281.5952,502.0781,291.5952,506.0781,287.5952,502.0781" style="stroke:#181818;stroke-width:1;stroke-linejoin:miter;stroke-miterlimit:10;"/><line style="stroke:#181818;stroke-width:1;" x1="269.5952" x2="269.5952" y1="288.1719" y2="308.1719"/><polygon fill="#181818" points="265.5952,298.1719,269.5952,308.1719,273.5952,298.1719,269.5952,302.1719" style="stroke:#181818;stroke-width:1;stroke-linejoin:miter;stroke-miterlimit:10;"/><line style="stroke:#181818;stroke-width:1;" x1="269.5952" x2="269.5952" y1="514.0781" y2="534.0781"/><polygon fill="#181818" points="265.5952,524.0781,269.5952,534.0781,273.5952,524.0781,269.5952,528.0781" style="stroke:#181818;stroke-width:1;stroke-linejoin:miter;stroke-miterlimit:10;"/><?plantuml-src ZL4xJWCn4Ett55CcHS8YVX8f40q54Y2HCafXujdDu5_a6LRY8fnWkK8ku8jXMue4KGfS-3Cpx_cz6I6n2AzemqO91TyqB2fAqzm-KHzhY2L-RWoOSbE2KV4YfrUh-VmiVbZaki-KSt7MNjtCslPyxZGiWoMj8WaAxqAmw44PeQ7Wr-l2y93sqQLlpvNM0sdqGXtbYWYSzaPvZT3bAWYk71gj9zyNxCll03lK5js19xzoegga3YRBD1gCsoo3JHejA14OqfZDtKr1jXamULJJfe6y_lA26WRYIbIJforVNnmittiUL6GJt0uzrzuTUKRB29DdV3_vtv6FDpGnZLqU1xWWelhIZuEMz9LP2xRe91ySNCA06nFYuZ_KbYAeAfTwAC4Ypclgolp3hla1?></g></svg>