<?plantuml 1.2026.2?><svg xmlns="http://www.w3.org/2000/svg" xmlns:xlink="http://www.w3.org/1999/xlink" contentStyleType="text/css" data-diagram-type="ACTIVITY" height="1141px" preserveAspectRatio="none" style="width:551px;height:1141px;background:#FFFFFF;" version="1.1" viewBox="0 0 551 1141" width="551px" zoomAndPan="magnify"><title>Asylum border procedure</title><defs/><g><g class="title" data-source-line="16"><text fill="#000000" font-family="Arial" font-size="14" font-weight="bold" lengthAdjust="spacing" textLength="171.1514" x="188.813" y="33.1318">Asylum border procedure</text></g><ellipse cx="184.0957" cy="57.0986" fill="#222222" rx="10" ry="10" style="stroke:#222222;stroke-width:1;"/><rect fill="#F8F8F8" height="33.7988" rx="12.5" ry="12.5" style="stroke:#333333;stroke-width:0.5;" width="346.1914" x="11" y="87.0986"/><text fill="#000000" font-family="Arial" font-size="12" lengthAdjust="spacing" textLength="326.1914" x="21" y="108.3545">Screening avslutad &#8212; s&#246;kanden h&#228;nvisas till gr&#228;nsf&#246;rfarande</text><path d="M312.8086,130.8975 L312.8086,161.7949 L292.8086,165.7949 L312.8086,169.7949 L312.8086,200.6924 A0,0 0 0 0 312.8086,200.6924 L539.7773,200.6924 A0,0 0 0 0 539.7773,200.6924 L539.7773,140.8975 L529.7773,130.8975 L312.8086,130.8975 A0,0 0 0 0 312.8086,130.8975" fill="#FFF7D6" style="stroke:#7A6A2A;stroke-width:0.5;"/><path d="M529.7773,130.8975 L529.7773,140.8975 L539.7773,140.8975 L529.7773,130.8975" fill="#FFF7D6" style="stroke:#7A6A2A;stroke-width:0.5;"/><a href="../rules/rule-apr-043-001.md" target="_top" title="../rules/rule-apr-043-001.md" xlink:actuate="onRequest" xlink:href="../rules/rule-apr-043-001.md" xlink:show="new" xlink:title="../rules/rule-apr-043-001.md" xlink:type="simple"><text fill="#000000" font-family="Arial" font-size="13" lengthAdjust="spacing" text-decoration="underline" textLength="117.7744" x="318.8086" y="148.0913">RULE-APR-043-001</text></a><text fill="#000000" font-family="Arial" font-size="13" lengthAdjust="spacing" textLength="205.9688" x="318.8086" y="163.04">Inresa nekas under hela f&#246;rfarandet</text><text fill="#000000" font-family="Arial" font-size="13" lengthAdjust="spacing" textLength="24.5591" x="318.8086" y="177.9888">Max</text><text fill="#000000" font-family="Arial" font-size="13" font-weight="bold" lengthAdjust="spacing" textLength="59.9917" x="346.9795" y="177.9888">12 veckor</text><text fill="#000000" font-family="Arial" font-size="13" lengthAdjust="spacing" textLength="4.3291" x="318.8086" y="192.9375">(</text><a href="../articles/apr-043.md" target="_top" title="../articles/apr-043.md" xlink:actuate="onRequest" xlink:href="../articles/apr-043.md" xlink:show="new" xlink:title="../articles/apr-043.md" xlink:type="simple"><text fill="#000000" font-family="Arial" font-size="13" lengthAdjust="spacing" text-decoration="underline" textLength="83.0781" x="323.1377" y="192.9375">ART-APR-043</text></a><text fill="#000000" font-family="Arial" font-size="13" lengthAdjust="spacing" textLength="4.3291" x="406.2158" y="192.9375">)</text><rect fill="#F8F8F8" height="33.7988" rx="12.5" ry="12.5" style="stroke:#333333;stroke-width:0.5;" width="217.4258" x="75.3828" y="148.8955"/><a href="../rules/rule-apr-043-001.md" target="_top" title="../rules/rule-apr-043-001.md" xlink:actuate="onRequest" xlink:href="../rules/rule-apr-043-001.md" xlink:show="new" xlink:title="../rules/rule-apr-043-001.md" xlink:type="simple"><text fill="#000000" font-family="Arial" font-size="12" lengthAdjust="spacing" text-decoration="underline" textLength="197.4258" x="85.3828" y="170.1514">Kontrollera villkor f&#246;r gr&#228;nsf&#246;rfarande</text></a><path d="M281.1299,266.5103 L281.1299,289.9333 L261.1299,293.9333 L281.1299,297.9333 L281.1299,321.3564 A0,0 0 0 0 281.1299,321.3564 L440.1406,321.3564 A0,0 0 0 0 440.1406,321.3564 L440.1406,276.5103 L430.1406,266.5103 L281.1299,266.5103 A0,0 0 0 0 281.1299,266.5103" fill="#FFF7D6" style="stroke:#7A6A2A;stroke-width:0.5;"/><path d="M430.1406,266.5103 L430.1406,276.5103 L440.1406,276.5103 L430.1406,266.5103" fill="#FFF7D6" style="stroke:#7A6A2A;stroke-width:0.5;"/><a href="../rules/rule-apr-053-001.md" target="_top" title="../rules/rule-apr-053-001.md" xlink:actuate="onRequest" xlink:href="../rules/rule-apr-053-001.md" xlink:show="new" xlink:title="../rules/rule-apr-053-001.md" xlink:type="simple"><text fill="#000000" font-family="Arial" font-size="13" lengthAdjust="spacing" text-decoration="underline" textLength="117.7744" x="287.1299" y="283.7041">RULE-APR-053-001</text></a><text fill="#000000" font-family="Arial" font-size="13" lengthAdjust="spacing" textLength="138.0107" x="287.1299" y="298.6528">Ensamkommande barn,</text><text fill="#000000" font-family="Arial" font-size="13" lengthAdjust="spacing" textLength="90.3271" x="287.1299" y="313.6016">s&#228;rskilda behov</text><rect fill="#F8F8F8" height="33.7988" rx="12.5" ry="12.5" style="stroke:#333333;stroke-width:0.5;" width="154.0684" x="107.0615" y="277.0339"/><a href="../rules/rule-apr-053-001.md" target="_top" title="../rules/rule-apr-053-001.md" xlink:actuate="onRequest" xlink:href="../rules/rule-apr-053-001.md" xlink:show="new" xlink:title="../rules/rule-apr-053-001.md" xlink:type="simple"><text fill="#000000" font-family="Arial" font-size="12" lengthAdjust="spacing" text-decoration="underline" textLength="134.0684" x="117.0615" y="298.2898">Undantag &#8212; inresa till&#229;ts</text></a><rect fill="#F8F8F8" height="33.7988" rx="12.5" ry="12.5" style="stroke:#333333;stroke-width:0.5;" width="162.0723" x="103.0596" y="343.8801"/><text fill="#000000" font-family="Arial" font-size="12" lengthAdjust="spacing" textLength="142.0723" x="113.0596" y="365.136">Regulj&#228;rt f&#246;rfarande tar vid</text><ellipse cx="184.0957" cy="408.679" fill="none" rx="11" ry="11" style="stroke:#222222;stroke-width:1;"/><ellipse cx="184.0957" cy="408.679" fill="#222222" rx="6" ry="6" style="stroke:#222222;stroke-width:1;"/><polygon fill="#FFFFFF" points="136.4004,220.6924,231.791,220.6924,243.791,232.6924,231.791,244.6924,136.4004,244.6924,124.4004,232.6924,136.4004,220.6924" style="stroke:#333333;stroke-width:0.5;"/><text fill="#000000" font-family="Arial" font-size="11" lengthAdjust="spacing" textLength="11.6177" x="188.0957" y="255.0103">Ja</text><text fill="#000000" font-family="Arial" font-size="11" lengthAdjust="spacing" textLength="95.3906" x="136.4004" y="236.6858">Undantag? (art. 53)</text><rect fill="#F8F8F8" height="33.7988" rx="12.5" ry="12.5" style="stroke:#333333;stroke-width:0.5;" width="194.7676" x="86.7119" y="461.679"/><text fill="#000000" font-family="Arial" font-size="12" lengthAdjust="spacing" textLength="174.7676" x="96.7119" y="482.9348">Ans&#246;kan l&#228;mnas in inom 5 dagar</text><rect fill="#F8F8F8" height="33.7988" rx="12.5" ry="12.5" style="stroke:#333333;stroke-width:0.5;" width="131.4219" x="118.3848" y="515.4778"/><text fill="#000000" font-family="Arial" font-size="12" lengthAdjust="spacing" textLength="111.4219" x="128.3848" y="536.7336">Upptagandepr&#246;vning</text><rect fill="#F8F8F8" height="33.7988" rx="12.5" ry="12.5" style="stroke:#333333;stroke-width:0.5;" width="110.0469" x="129.0723" y="617.6011"/><text fill="#000000" font-family="Arial" font-size="12" lengthAdjust="spacing" textLength="90.0469" x="139.0723" y="638.8569">Ans&#246;kan avvisas</text><path d="M279.7998,661.3999 L279.7998,684.823 L259.7998,688.823 L279.7998,692.823 L279.7998,716.2461 A0,0 0 0 0 279.7998,716.2461 L456.9141,716.2461 A0,0 0 0 0 456.9141,716.2461 L456.9141,671.3999 L446.9141,661.3999 L279.7998,661.3999 A0,0 0 0 0 279.7998,661.3999" fill="#FFF7D6" style="stroke:#7A6A2A;stroke-width:0.5;"/><path d="M446.9141,661.3999 L446.9141,671.3999 L456.9141,671.3999 L446.9141,661.3999" fill="#FFF7D6" style="stroke:#7A6A2A;stroke-width:0.5;"/><a href="../rules/rule-apr-051-001.md" target="_top" title="../rules/rule-apr-051-001.md" xlink:actuate="onRequest" xlink:href="../rules/rule-apr-051-001.md" xlink:show="new" xlink:title="../rules/rule-apr-051-001.md" xlink:type="simple"><text fill="#000000" font-family="Arial" font-size="13" lengthAdjust="spacing" text-decoration="underline" textLength="117.7744" x="285.7998" y="678.5938">RULE-APR-051-001</text></a><text fill="#000000" font-family="Arial" font-size="13" font-weight="bold" lengthAdjust="spacing" textLength="59.9917" x="285.7998" y="693.5425">12 veckor</text><text fill="#000000" font-family="Arial" font-size="13" lengthAdjust="spacing" textLength="92.5107" x="349.4033" y="693.5425">f&#246;r avl&#228;gsnande</text><text fill="#000000" font-family="Arial" font-size="13" lengthAdjust="spacing" textLength="4.3291" x="285.7998" y="708.4912">(</text><a href="../articles/apr-051.md" target="_top" title="../articles/apr-051.md" xlink:actuate="onRequest" xlink:href="../articles/apr-051.md" xlink:show="new" xlink:title="../articles/apr-051.md" xlink:type="simple"><text fill="#000000" font-family="Arial" font-size="13" lengthAdjust="spacing" text-decoration="underline" textLength="83.0781" x="290.1289" y="708.4912">ART-APR-051</text></a><text fill="#000000" font-family="Arial" font-size="13" lengthAdjust="spacing" textLength="4.3291" x="373.207" y="708.4912">)</text><rect fill="#F8F8F8" height="33.7988" rx="12.5" ry="12.5" style="stroke:#333333;stroke-width:0.5;" width="151.4082" x="108.3916" y="671.9236"/><a href="../rules/rule-apr-051-001.md" target="_top" title="../rules/rule-apr-051-001.md" xlink:actuate="onRequest" xlink:href="../rules/rule-apr-051-001.md" xlink:show="new" xlink:title="../rules/rule-apr-051-001.md" xlink:type="simple"><text fill="#000000" font-family="Arial" font-size="12" lengthAdjust="spacing" text-decoration="underline" textLength="131.4082" x="118.3916" y="693.1794">Return border procedure</text></a><ellipse cx="184.0957" cy="747.2461" fill="none" rx="11" ry="11" style="stroke:#222222;stroke-width:1;"/><ellipse cx="184.0957" cy="747.2461" fill="#222222" rx="6" ry="6" style="stroke:#222222;stroke-width:1;"/><polygon fill="#FFFFFF" points="163.9219,569.2766,204.2695,569.2766,216.2695,581.2766,204.2695,593.2766,163.9219,593.2766,151.9219,581.2766,163.9219,569.2766" style="stroke:#333333;stroke-width:0.5;"/><text fill="#000000" font-family="Arial" font-size="11" lengthAdjust="spacing" textLength="16.5054" x="188.0957" y="603.5945">Nej</text><text fill="#000000" font-family="Arial" font-size="11" lengthAdjust="spacing" textLength="40.3477" x="163.9219" y="585.27">Till&#229;tlig?</text><rect fill="#F8F8F8" height="33.7988" rx="12.5" ry="12.5" style="stroke:#333333;stroke-width:0.5;" width="112.0449" x="128.0732" y="800.2461"/><text fill="#000000" font-family="Arial" font-size="12" lengthAdjust="spacing" textLength="92.0449" x="138.0732" y="821.502">Personlig intervju</text><path d="M312.1494,844.0449 L312.1494,874.9424 L292.1494,878.9424 L312.1494,882.9424 L312.1494,913.8398 A0,0 0 0 0 312.1494,913.8398 L482.7383,913.8398 A0,0 0 0 0 482.7383,913.8398 L482.7383,854.0449 L472.7383,844.0449 L312.1494,844.0449 A0,0 0 0 0 312.1494,844.0449" fill="#FFF7D6" style="stroke:#7A6A2A;stroke-width:0.5;"/><path d="M472.7383,844.0449 L472.7383,854.0449 L482.7383,854.0449 L472.7383,844.0449" fill="#FFF7D6" style="stroke:#7A6A2A;stroke-width:0.5;"/><a href="../rules/rule-apr-045-001.md" target="_top" title="../rules/rule-apr-045-001.md" xlink:actuate="onRequest" xlink:href="../rules/rule-apr-045-001.md" xlink:show="new" xlink:title="../rules/rule-apr-045-001.md" xlink:type="simple"><text fill="#000000" font-family="Arial" font-size="13" lengthAdjust="spacing" text-decoration="underline" textLength="117.7744" x="318.1494" y="861.2388">RULE-APR-045-001</text></a><text fill="#000000" font-family="Arial" font-size="13" lengthAdjust="spacing" textLength="122.4844" x="318.1494" y="876.1875">Grunder: &lt;20% bifall,</text><text fill="#000000" font-family="Arial" font-size="13" lengthAdjust="spacing" textLength="149.5889" x="318.1494" y="891.1362">s&#228;kerhetshot, vilseledning</text><text fill="#000000" font-family="Arial" font-size="13" lengthAdjust="spacing" textLength="4.3291" x="318.1494" y="906.085">(</text><a href="../articles/apr-045.md" target="_top" title="../articles/apr-045.md" xlink:actuate="onRequest" xlink:href="../articles/apr-045.md" xlink:show="new" xlink:title="../articles/apr-045.md" xlink:type="simple"><text fill="#000000" font-family="Arial" font-size="13" lengthAdjust="spacing" text-decoration="underline" textLength="83.0781" x="322.4785" y="906.085">ART-APR-045</text></a><text fill="#000000" font-family="Arial" font-size="13" lengthAdjust="spacing" textLength="4.3291" x="405.5566" y="906.085">)</text><rect fill="#F8F8F8" height="33.7988" rx="12.5" ry="12.5" style="stroke:#333333;stroke-width:0.5;" width="216.1074" x="76.042" y="862.043"/><text fill="#000000" font-family="Arial" font-size="12" lengthAdjust="spacing" textLength="196.1074" x="86.042" y="883.2988">Pr&#246;vning i sak (p&#229;skyndade grunder)</text><polygon fill="#FFFFFF" points="112.2493,933.8398,255.9421,933.8398,267.9421,945.8398,255.9421,957.8398,112.2493,957.8398,100.2493,945.8398,112.2493,933.8398" style="stroke:#333333;stroke-width:0.5;"/><text fill="#000000" font-family="Arial" font-size="11" lengthAdjust="spacing" textLength="143.6929" x="112.2493" y="949.8333">Internationellt skydd beviljas?</text><text fill="#000000" font-family="Arial" font-size="11" lengthAdjust="spacing" textLength="11.6177" x="88.6316" y="943.5088">Ja</text><text fill="#000000" font-family="Arial" font-size="11" lengthAdjust="spacing" textLength="16.5054" x="267.9421" y="943.5088">Nej</text><rect fill="#F8F8F8" height="33.7988" rx="12.5" ry="12.5" style="stroke:#333333;stroke-width:0.5;" width="144.0723" x="18.2131" y="967.8398"/><text fill="#000000" font-family="Arial" font-size="12" lengthAdjust="spacing" textLength="124.0723" x="28.2131" y="989.0957">S&#246;kanden till&#229;ts resa in</text><rect fill="#F8F8F8" height="33.7988" rx="12.5" ry="12.5" style="stroke:#333333;stroke-width:0.5;" width="56.0176" x="249.9333" y="967.8398"/><text fill="#000000" font-family="Arial" font-size="12" lengthAdjust="spacing" textLength="36.0176" x="259.9333" y="989.0957">Avslag</text><path d="M373.6462,1018.5894 L373.6462,1034.5381 L353.6462,1038.5381 L373.6462,1042.5381 L373.6462,1058.4868 A0,0 0 0 0 373.6462,1058.4868 L512.4207,1058.4868 A0,0 0 0 0 512.4207,1058.4868 L512.4207,1028.5894 L502.4207,1018.5894 L373.6462,1018.5894 A0,0 0 0 0 373.6462,1018.5894" fill="#FFF7D6" style="stroke:#7A6A2A;stroke-width:0.5;"/><path d="M502.4207,1018.5894 L502.4207,1028.5894 L512.4207,1028.5894 L502.4207,1018.5894" fill="#FFF7D6" style="stroke:#7A6A2A;stroke-width:0.5;"/><a href="../rules/rule-apr-051-001.md" target="_top" title="../rules/rule-apr-051-001.md" xlink:actuate="onRequest" xlink:href="../rules/rule-apr-051-001.md" xlink:show="new" xlink:title="../rules/rule-apr-051-001.md" xlink:type="simple"><text fill="#000000" font-family="Arial" font-size="13" lengthAdjust="spacing" text-decoration="underline" textLength="117.7744" x="379.6462" y="1035.7832">RULE-APR-051-001</text></a><text fill="#000000" font-family="Arial" font-size="13" lengthAdjust="spacing" textLength="4.3291" x="379.6462" y="1050.7319">(</text><a href="../articles/apr-051.md" target="_top" title="../articles/apr-051.md" xlink:actuate="onRequest" xlink:href="../articles/apr-051.md" xlink:show="new" xlink:title="../articles/apr-051.md" xlink:type="simple"><text fill="#000000" font-family="Arial" font-size="13" lengthAdjust="spacing" text-decoration="underline" textLength="83.0781" x="383.9753" y="1050.7319">ART-APR-051</text></a><text fill="#000000" font-family="Arial" font-size="13" lengthAdjust="spacing" textLength="4.3291" x="467.0535" y="1050.7319">)</text><rect fill="#F8F8F8" height="33.7988" rx="12.5" ry="12.5" style="stroke:#333333;stroke-width:0.5;" width="151.4082" x="202.238" y="1021.6387"/><a href="../rules/rule-apr-051-001.md" target="_top" title="../rules/rule-apr-051-001.md" xlink:actuate="onRequest" xlink:href="../rules/rule-apr-051-001.md" xlink:show="new" xlink:title="../rules/rule-apr-051-001.md" xlink:type="simple"><text fill="#000000" font-family="Arial" font-size="12" lengthAdjust="spacing" text-decoration="underline" textLength="131.4082" x="212.238" y="1042.8945">Return border procedure</text></a><polygon fill="#FFFFFF" points="184.0957,1064.4868,196.0957,1076.4868,184.0957,1088.4868,172.0957,1076.4868,184.0957,1064.4868" style="stroke:#333333;stroke-width:0.5;"/><ellipse cx="184.0957" cy="1119.4868" fill="none" rx="11" ry="11" style="stroke:#222222;stroke-width:1;"/><ellipse cx="184.0957" cy="1119.4868" fill="#222222" rx="6" ry="6" style="stroke:#222222;stroke-width:1;"/><line style="stroke:#181818;stroke-width:1;" x1="184.0957" x2="184.0957" y1="67.0986" y2="87.0986"/><polygon fill="#181818" points="180.0957,77.0986,184.0957,87.0986,188.0957,77.0986,184.0957,81.0986" style="stroke:#181818;stroke-width:1;"/><line style="stroke:#181818;stroke-width:1;" x1="184.0957" x2="184.0957" y1="120.8975" y2="148.8955"/><polygon fill="#181818" points="180.0957,138.8955,184.0957,148.8955,188.0957,138.8955,184.0957,142.8955" style="stroke:#181818;stroke-width:1;"/><line style="stroke:#181818;stroke-width:1;" x1="184.0957" x2="184.0957" y1="310.8328" y2="343.8801"/><polygon fill="#181818" points="180.0957,333.8801,184.0957,343.8801,188.0957,333.8801,184.0957,337.8801" style="stroke:#181818;stroke-width:1;"/><line style="stroke:#181818;stroke-width:1;" x1="184.0957" x2="184.0957" y1="377.679" y2="397.679"/><polygon fill="#181818" points="180.0957,387.679,184.0957,397.679,188.0957,387.679,184.0957,391.679" style="stroke:#181818;stroke-width:1;"/><line style="stroke:#181818;stroke-width:1;" x1="184.0957" x2="184.0957" y1="244.6924" y2="277.0339"/><polygon fill="#181818" points="180.0957,267.0339,184.0957,277.0339,188.0957,267.0339,184.0957,271.0339" style="stroke:#181818;stroke-width:1;"/><line style="stroke:#181818;stroke-width:1;" x1="243.791" x2="450.1406" y1="232.6924" y2="232.6924"/><polygon fill="#181818" points="446.1406,331.3564,450.1406,341.3564,454.1406,331.3564,450.1406,335.3564" style="stroke:#181818;stroke-width:1;"/><line style="stroke:#181818;stroke-width:1;" x1="450.1406" x2="450.1406" y1="232.6924" y2="441.679"/><line style="stroke:#181818;stroke-width:1;" x1="450.1406" x2="184.0957" y1="441.679" y2="441.679"/><line style="stroke:#181818;stroke-width:1;" x1="184.0957" x2="184.0957" y1="441.679" y2="461.679"/><polygon fill="#181818" points="180.0957,451.679,184.0957,461.679,188.0957,451.679,184.0957,455.679" style="stroke:#181818;stroke-width:1;"/><line style="stroke:#181818;stroke-width:1;" x1="184.0957" x2="184.0957" y1="182.6943" y2="220.6924"/><polygon fill="#181818" points="180.0957,210.6924,184.0957,220.6924,188.0957,210.6924,184.0957,214.6924" style="stroke:#181818;stroke-width:1;"/><line style="stroke:#181818;stroke-width:1;" x1="184.0957" x2="184.0957" y1="495.4778" y2="515.4778"/><polygon fill="#181818" points="180.0957,505.4778,184.0957,515.4778,188.0957,505.4778,184.0957,509.4778" style="stroke:#181818;stroke-width:1;"/><line style="stroke:#181818;stroke-width:1;" x1="184.0957" x2="184.0957" y1="651.3999" y2="671.9236"/><polygon fill="#181818" points="180.0957,661.9236,184.0957,671.9236,188.0957,661.9236,184.0957,665.9236" style="stroke:#181818;stroke-width:1;"/><line style="stroke:#181818;stroke-width:1;" x1="184.0957" x2="184.0957" y1="705.7224" y2="736.2461"/><polygon fill="#181818" points="180.0957,726.2461,184.0957,736.2461,188.0957,726.2461,184.0957,730.2461" style="stroke:#181818;stroke-width:1;"/><line style="stroke:#181818;stroke-width:1;" x1="184.0957" x2="184.0957" y1="593.2766" y2="617.6011"/><polygon fill="#181818" points="180.0957,607.6011,184.0957,617.6011,188.0957,607.6011,184.0957,611.6011" style="stroke:#181818;stroke-width:1;"/><line style="stroke:#181818;stroke-width:1;" x1="216.2695" x2="466.9141" y1="581.2766" y2="581.2766"/><polygon fill="#181818" points="462.9141,669.9236,466.9141,679.9236,470.9141,669.9236,466.9141,673.9236" style="stroke:#181818;stroke-width:1;"/><line style="stroke:#181818;stroke-width:1;" x1="466.9141" x2="466.9141" y1="581.2766" y2="780.2461"/><line style="stroke:#181818;stroke-width:1;" x1="466.9141" x2="184.0957" y1="780.2461" y2="780.2461"/><line style="stroke:#181818;stroke-width:1;" x1="184.0957" x2="184.0957" y1="780.2461" y2="800.2461"/><polygon fill="#181818" points="180.0957,790.2461,184.0957,800.2461,188.0957,790.2461,184.0957,794.2461" style="stroke:#181818;stroke-width:1;"/><line style="stroke:#181818;stroke-width:1;" x1="184.0957" x2="184.0957" y1="549.2766" y2="569.2766"/><polygon fill="#181818" points="180.0957,559.2766,184.0957,569.2766,188.0957,559.2766,184.0957,563.2766" style="stroke:#181818;stroke-width:1;"/><line style="stroke:#181818;stroke-width:1;" x1="184.0957" x2="184.0957" y1="834.0449" y2="862.043"/><polygon fill="#181818" points="180.0957,852.043,184.0957,862.043,188.0957,852.043,184.0957,856.043" style="stroke:#181818;stroke-width:1;"/><line style="stroke:#181818;stroke-width:1;" x1="277.9421" x2="277.9421" y1="1001.6387" y2="1021.6387"/><polygon fill="#181818" points="273.9421,1011.6387,277.9421,1021.6387,281.9421,1011.6387,277.9421,1015.6387" style="stroke:#181818;stroke-width:1;"/><line style="stroke:#181818;stroke-width:1;" x1="100.2493" x2="90.2493" y1="945.8398" y2="945.8398"/><line style="stroke:#181818;stroke-width:1;" x1="90.2493" x2="90.2493" y1="945.8398" y2="967.8398"/><polygon fill="#181818" points="86.2493,957.8398,90.2493,967.8398,94.2493,957.8398,90.2493,961.8398" style="stroke:#181818;stroke-width:1;"/><line style="stroke:#181818;stroke-width:1;" x1="267.9421" x2="277.9421" y1="945.8398" y2="945.8398"/><line style="stroke:#181818;stroke-width:1;" x1="277.9421" x2="277.9421" y1="945.8398" y2="967.8398"/><polygon fill="#181818" points="273.9421,957.8398,277.9421,967.8398,281.9421,957.8398,277.9421,961.8398" style="stroke:#181818;stroke-width:1;"/><line style="stroke:#181818;stroke-width:1;" x1="90.2493" x2="90.2493" y1="1001.6387" y2="1076.4868"/><line style="stroke:#181818;stroke-width:1;" x1="90.2493" x2="172.0957" y1="1076.4868" y2="1076.4868"/><polygon fill="#181818" points="162.0957,1072.4868,172.0957,1076.4868,162.0957,1080.4868,166.0957,1076.4868" style="stroke:#181818;stroke-width:1;"/><line style="stroke:#181818;stroke-width:1;" x1="277.9421" x2="277.9421" y1="1055.4375" y2="1076.4868"/><line style="stroke:#181818;stroke-width:1;" x1="277.9421" x2="196.0957" y1="1076.4868" y2="1076.4868"/><polygon fill="#181818" points="206.0957,1072.4868,196.0957,1076.4868,206.0957,1080.4868,202.0957,1076.4868" style="stroke:#181818;stroke-width:1;"/><line style="stroke:#181818;stroke-width:1;" x1="184.0957" x2="184.0957" y1="895.8418" y2="933.8398"/><polygon fill="#181818" points="180.0957,923.8398,184.0957,933.8398,188.0957,923.8398,184.0957,927.8398" style="stroke:#181818;stroke-width:1;"/><line style="stroke:#181818;stroke-width:1;" x1="184.0957" x2="184.0957" y1="1088.4868" y2="1108.4868"/><polygon fill="#181818" points="180.0957,1098.4868,184.0957,1108.4868,188.0957,1098.4868,184.0957,1102.4868" style="stroke:#181818;stroke-width:1;"/><?plantuml-src pPHTRXen4CVVznGZLPK01Gf9Dwb2fOWqfKq_eeWaJn4F0sjspNhjbUtT5bMLUeWU8Rb2Bh0twKawtWK2XJHjd-eW5FpndvcV_sFBhM3GCpEH9J1IEc0QKgt6BCWqypmJSvcYnWHCX87wn6K84nI6hQoydQLC2oxZLqee3SS2n_6svIiPbFymi3fR5GZO13DX-qhQCqme6yrHhApZsFASsnbyyG2EIJtKAfD15Uv9_uNxSojbzlFPlNBGx0d7HCbWyrWvLZPiEVrr9GcfB7iWWNx_u6J_rmGEUlkztHv9UCQYjfvtU37MZ4b747CZCei1_FZs7Knn5oEXaH0LDpBd1WrOBWI4cdwRIN6d9vG1xUYIoFLrg_LCPuAPyhk9gMwsd-yrs-rEAmdWFJ7KIWYc4N8IYIaLfx0fDXnslR8cpSF8KlQFA0-kFhnkziu7YxdXaCwSIiqCWcGn9Psv-uM82OILE4xw8tw6HgEp2paRKqQD1itLodX4XezTo7aq5watk5m46Wxh7fD12T_p-0HgP2AK5iCZgD7P5lXxzJhOYEZLtc7T8s60xP3yPIaBZH8_hqfmn8jRQnmMfx66ner7DE_n-FTut7Wj3IQnIX870qQevSvynHGtclmb0eGHYrHUJjzNMrOoO64cfhJHhZ85SXHTRz2jTXchKiznuXDoI4zMZW9Ht2IIxeLB-gW4V0WmHErST9McLB-JIdLnbpjJTYk-bnK7mSEZ1TSpDbs0NMfZNXgr-rlWdIKSPZCjDvwNlsJTsSAwiyPwpMELxp4d3A6HhjRvhctEypjhplCxpdcRzx5E-fnfeoIX8hwMwNoQERRd2wB0mM0CjRIuDV6CF4SN5-goI-f_r7l-bjxpbmM_gQGEuULk-ocCE3tBmbcBR1Kp7J5h8cLtt2jWc621o-YXjlFNsyxVRBjJLw14ovLaGbYWWeA0R4lgKpH7coruiNpL5fq5PPznIOmOfRJkAteGCVpFtFIFFfcxexJAJm00?></g></svg>