<?plantuml 1.2026.2?><svg xmlns="http://www.w3.org/2000/svg" xmlns:xlink="http://www.w3.org/1999/xlink" contentStyleType="text/css" data-diagram-type="ACTIVITY" height="2012px" preserveAspectRatio="none" style="width:776px;height:2012px;background:#FFFFFF;" version="1.1" viewBox="0 0 776 2012" width="776px" zoomAndPan="magnify"><title>&#197;tertagandef&#246;rfarandet (take back) &#8212; detaljerat aktivitetsfl&#246;de</title><defs/><g><g class="title" data-source-line="17"><text fill="#000000" font-family="Arial" font-size="14" font-weight="bold" lengthAdjust="spacing" textLength="414.668" x="179.2595" y="33.1318">&#197;tertagandef&#246;rfarandet (take back) &#8212; detaljerat aktivitetsfl&#246;de</text></g><ellipse cx="383.0935" cy="57.0986" fill="#222222" rx="10" ry="10" style="stroke:#222222;stroke-width:1;"/><rect fill="none" height="272.9863" style="stroke:#000000;stroke-width:1.5;" width="457.2153" x="272.0505" y="77.0986"/><path d="M337.2986,77.0986 L337.2986,86.1973 L327.2986,96.1973 L272.0505,96.1973" fill="none" style="stroke:#000000;stroke-width:1.5;"/><text fill="#000000" font-family="Arial" font-size="14" lengthAdjust="spacing" textLength="55.248" x="275.0505" y="91.2305">Uppt&#228;ckt</text><rect fill="#F8F8F8" height="61.3965" rx="12.5" ry="12.5" style="stroke:#333333;stroke-width:0.5;" width="202.0859" x="282.0505" y="113.1973"/><text fill="#000000" font-family="Arial" font-size="12" lengthAdjust="spacing" textLength="182.0859" x="292.0505" y="134.4531">Person p&#229;tr&#228;ffas i en medlemsstat</text><text fill="#000000" font-family="Arial" font-size="12" lengthAdjust="spacing" textLength="168.1289" x="292.0505" y="148.252">utan uppeh&#229;llshandling, ELLER</text><text fill="#000000" font-family="Arial" font-size="12" lengthAdjust="spacing" textLength="147.4336" x="292.0505" y="162.0508">g&#246;r ny ans&#246;kan i annan stat</text><rect fill="#F8F8F8" height="33.7988" rx="12.5" ry="12.5" style="stroke:#333333;stroke-width:0.5;" width="170.082" x="298.0525" y="194.5938"/><text fill="#000000" font-family="Arial" font-size="12" lengthAdjust="spacing" textLength="150.082" x="308.0525" y="215.8496">Eurodac-s&#246;kning genomf&#246;rs</text><path d="M485.7908,238.3926 L485.7908,284.2388 L465.7908,288.2388 L485.7908,292.2388 L485.7908,338.085 A0,0 0 0 0 485.7908,338.085 L719.2659,338.085 A0,0 0 0 0 719.2659,338.085 L719.2659,248.3926 L709.2659,238.3926 L485.7908,238.3926 A0,0 0 0 0 485.7908,238.3926" fill="#FFF7D6" style="stroke:#7A6A2A;stroke-width:0.5;"/><path d="M709.2659,238.3926 L709.2659,248.3926 L719.2659,248.3926 L709.2659,238.3926" fill="#FFF7D6" style="stroke:#7A6A2A;stroke-width:0.5;"/><line style="stroke:#7A6A2A;stroke-width:1;" x1="485.7908" x2="527.7402" y1="250.8669" y2="250.8669"/><line style="stroke:#7A6A2A;stroke-width:1;" x1="485.7908" x2="527.7402" y1="252.8669" y2="252.8669"/><text fill="#000000" font-family="Arial" font-size="13" lengthAdjust="spacing" textLength="142.3525" x="531.3521" y="255.0864">Skillnad mot take charge</text><line style="stroke:#7A6A2A;stroke-width:1;" x1="677.3164" x2="719.2659" y1="250.8669" y2="250.8669"/><line style="stroke:#7A6A2A;stroke-width:1;" x1="677.3164" x2="719.2659" y1="252.8669" y2="252.8669"/><text fill="#000000" font-family="Arial" font-size="13" lengthAdjust="spacing" textLength="158.2407" x="491.7908" y="270.5352">Ansvaret &#228;r redan fastst&#228;llt.</text><text fill="#000000" font-family="Arial" font-size="13" lengthAdjust="spacing" textLength="212.4751" x="491.7908" y="285.4839">Ingen ny ansvarsbed&#246;mning beh&#246;vs.</text><text fill="#000000" font-family="Arial" font-size="13" lengthAdjust="spacing" textLength="106.9453" x="491.7908" y="300.4326">Det handlar om att</text><text fill="#000000" font-family="Arial" font-size="13" font-weight="bold" lengthAdjust="spacing" textLength="48.4072" x="602.3479" y="300.4326">&#229;terf&#246;ra</text><text fill="#000000" font-family="Arial" font-size="13" lengthAdjust="spacing" textLength="120.6689" x="491.7908" y="315.3813">personen till r&#228;tt stat.</text><text fill="#000000" font-family="Arial" font-size="13" lengthAdjust="spacing" textLength="4.3291" x="491.7908" y="330.3301">(</text><a href="../rules/rule-ammr-036-001.md" target="_top" title="../rules/rule-ammr-036-001.md" xlink:actuate="onRequest" xlink:href="../rules/rule-ammr-036-001.md" xlink:show="new" xlink:title="../rules/rule-ammr-036-001.md" xlink:type="simple"><text fill="#000000" font-family="Arial" font-size="13" lengthAdjust="spacing" text-decoration="underline" textLength="130.7617" x="496.1199" y="330.3301">RULE-AMMR-036-001</text></a><text fill="#000000" font-family="Arial" font-size="13" lengthAdjust="spacing" textLength="4.3291" x="626.8816" y="330.3301">)</text><rect fill="#F8F8F8" height="47.5977" rx="12.5" ry="12.5" style="stroke:#333333;stroke-width:0.5;" width="165.3945" x="300.3962" y="264.4399"/><text fill="#000000" font-family="Arial" font-size="12" lengthAdjust="spacing" textLength="145.3945" x="310.3962" y="285.6958">Tr&#228;ff &#8212; ansvarig stat redan</text><text fill="#000000" font-family="Arial" font-size="12" lengthAdjust="spacing" textLength="111.3867" x="310.3962" y="299.4946">registrerad i Eurodac</text><rect fill="none" height="245.4321" style="stroke:#000000;stroke-width:1.5;" width="464.9321" x="256.0369" y="360.085"/><path d="M478.4773,360.085 L478.4773,369.1836 L468.4773,379.1836 L256.0369,379.1836" fill="none" style="stroke:#000000;stroke-width:1.5;"/><text fill="#000000" font-family="Arial" font-size="14" lengthAdjust="spacing" textLength="212.4404" x="259.0369" y="374.2168">Avisering om &#229;tertagande (art. 41)</text><path d="M520.1501,389.1836 L520.1501,487.3503 L500.1501,491.3503 L520.1501,495.3503 L520.1501,593.5171 A0,0 0 0 0 520.1501,593.5171 L710.969,593.5171 A0,0 0 0 0 710.969,593.5171 L710.969,399.1836 L700.969,389.1836 L520.1501,389.1836 A0,0 0 0 0 520.1501,389.1836" fill="#FFF7D6" style="stroke:#7A6A2A;stroke-width:0.5;"/><path d="M700.969,389.1836 L700.969,399.1836 L710.969,399.1836 L700.969,389.1836" fill="#FFF7D6" style="stroke:#7A6A2A;stroke-width:0.5;"/><a href="../rules/rule-ammr-041-001.md" target="_top" title="../rules/rule-ammr-041-001.md" xlink:actuate="onRequest" xlink:href="../rules/rule-ammr-041-001.md" xlink:show="new" xlink:title="../rules/rule-ammr-041-001.md" xlink:type="simple"><text fill="#000000" font-family="Arial" font-size="13" lengthAdjust="spacing" text-decoration="underline" textLength="130.7617" x="526.1501" y="406.3774">RULE-AMMR-041-001</text></a><text fill="#000000" font-family="Arial" font-size="13" lengthAdjust="spacing" textLength="113.4453" x="526.1501" y="421.3262">Omedelbart, senast</text><text fill="#000000" font-family="Arial" font-size="13" font-weight="bold" lengthAdjust="spacing" textLength="52.7617" x="643.2073" y="421.3262">2 veckor</text><text fill="#000000" font-family="Arial" font-size="13" lengthAdjust="spacing" textLength="104.7681" x="526.1501" y="436.2749">efter Eurodac-tr&#228;ff</text><text fill="#000000" font-family="Arial" font-size="13" lengthAdjust="spacing" textLength="4.3291" x="526.1501" y="451.2236">(</text><a href="../articles/ammr-041.md" target="_top" title="../articles/ammr-041.md" xlink:actuate="onRequest" xlink:href="../articles/ammr-041.md" xlink:show="new" xlink:title="../articles/ammr-041.md" xlink:type="simple"><text fill="#000000" font-family="Arial" font-size="13" lengthAdjust="spacing" text-decoration="underline" textLength="96.0654" x="530.4792" y="451.2236">ART-AMMR-041</text></a><text fill="#000000" font-family="Arial" font-size="13" lengthAdjust="spacing" textLength="4.3291" x="626.5447" y="451.2236">)</text><text fill="#000000" font-family="Arial" font-size="13" lengthAdjust="spacing" textLength="12.9873" x="526.1501" y="466.1724">---</text><line style="stroke:#7A6A2A;stroke-width:1;" x1="520.1501" x2="589.1787" y1="476.4016" y2="476.4016"/><line style="stroke:#7A6A2A;stroke-width:1;" x1="520.1501" x2="589.1787" y1="478.4016" y2="478.4016"/><text fill="#000000" font-family="Arial" font-size="13" lengthAdjust="spacing" textLength="45.5381" x="592.7905" y="480.6211">Inneh&#229;ll</text><line style="stroke:#7A6A2A;stroke-width:1;" x1="641.9404" x2="710.969" y1="476.4016" y2="476.4016"/><line style="stroke:#7A6A2A;stroke-width:1;" x1="641.9404" x2="710.969" y1="478.4016" y2="478.4016"/><text fill="#000000" font-family="Arial" font-size="13" lengthAdjust="spacing" textLength="129.3398" x="526.1501" y="496.0698">Standardformul&#228;r med</text><text fill="#000000" font-family="Arial" font-size="13" lengthAdjust="spacing" textLength="75.1436" x="526.1501" y="511.0186">bevis/indicier</text><text fill="#000000" font-family="Arial" font-size="13" lengthAdjust="spacing" textLength="12.9873" x="526.1501" y="525.9673">---</text><line style="stroke:#7A6A2A;stroke-width:1;" x1="520.1501" x2="598.2209" y1="536.1965" y2="536.1965"/><line style="stroke:#7A6A2A;stroke-width:1;" x1="520.1501" x2="598.2209" y1="538.1965" y2="538.1965"/><text fill="#000000" font-family="Arial" font-size="13" lengthAdjust="spacing" textLength="27.4536" x="601.8328" y="540.416">OBS</text><line style="stroke:#7A6A2A;stroke-width:1;" x1="632.8982" x2="710.969" y1="536.1965" y2="536.1965"/><line style="stroke:#7A6A2A;stroke-width:1;" x1="632.8982" x2="710.969" y1="538.1965" y2="538.1965"/><text fill="#000000" font-family="Arial" font-size="13" lengthAdjust="spacing" textLength="160.4307" x="526.1501" y="555.8647">Underl&#229;tenhet p&#229;verkar inte</text><text fill="#000000" font-family="Arial" font-size="13" lengthAdjust="spacing" textLength="127.1943" x="526.1501" y="570.8135">den ansvariga statens</text><text fill="#000000" font-family="Arial" font-size="13" lengthAdjust="spacing" textLength="112.728" x="526.1501" y="585.7622">skyldighet att &#229;terta</text><rect fill="#F8F8F8" height="33.7988" rx="12.5" ry="12.5" style="stroke:#333333;stroke-width:0.5;" width="234.1133" x="266.0369" y="474.4509"/><a href="../rules/rule-ammr-041-001.md" target="_top" title="../rules/rule-ammr-041-001.md" xlink:actuate="onRequest" xlink:href="../rules/rule-ammr-041-001.md" xlink:show="new" xlink:title="../rules/rule-ammr-041-001.md" xlink:type="simple"><text fill="#000000" font-family="Arial" font-size="12" lengthAdjust="spacing" text-decoration="underline" textLength="214.1133" x="276.0369" y="495.7068">Staten skickar avisering om &#229;tertagande</text></a><rect fill="none" height="391.9863" style="stroke:#000000;stroke-width:1.5;" width="754.187" x="11" y="615.5171"/><path d="M225.6406,615.5171 L225.6406,624.6157 L215.6406,634.6157 L11,634.6157" fill="none" style="stroke:#000000;stroke-width:1.5;"/><text fill="#000000" font-family="Arial" font-size="14" lengthAdjust="spacing" textLength="204.6406" x="14" y="629.6489">Ansvarig stat bekr&#228;ftar (art. 41.3)</text><polygon fill="#FFFFFF" points="38.5691,654.6157,138.8313,654.6157,150.8313,666.6157,138.8313,678.6157,38.5691,678.6157,26.5691,666.6157,38.5691,654.6157" style="stroke:#333333;stroke-width:0.5;"/><text fill="#000000" font-family="Arial" font-size="11" lengthAdjust="spacing" textLength="44.6284" x="92.7002" y="688.9336">Bekr&#228;ftar</text><text fill="#000000" font-family="Arial" font-size="11" lengthAdjust="spacing" textLength="100.2622" x="38.5691" y="670.6091">Svar inom 2 veckor?</text><rect fill="#F8F8F8" height="33.7988" rx="12.5" ry="12.5" style="stroke:#333333;stroke-width:0.5;" width="135.4004" x="21" y="711.2646"/><text fill="#000000" font-family="Arial" font-size="12" lengthAdjust="spacing" textLength="115.4004" x="31" y="732.5205">Bekr&#228;ftar mottagande</text><polygon fill="#FFFFFF" points="240.7134,654.6157,283.521,654.6157,295.521,666.6157,283.521,678.6157,240.7134,678.6157,228.7134,666.6157,240.7134,654.6157" style="stroke:#333333;stroke-width:0.5;"/><text fill="#000000" font-family="Arial" font-size="11" lengthAdjust="spacing" textLength="42.8076" x="240.7134" y="670.6091">Inv&#228;nder</text><text fill="#000000" font-family="Arial" font-size="11" lengthAdjust="spacing" textLength="48.3022" x="295.521" y="664.2847">Inget svar</text><path d="M368.4912,698.6157 L368.4912,744.4619 L348.4912,748.4619 L368.4912,752.4619 L368.4912,798.3081 A0,0 0 0 0 368.4912,798.3081 L564.7183,798.3081 A0,0 0 0 0 564.7183,798.3081 L564.7183,708.6157 L554.7183,698.6157 L368.4912,698.6157 A0,0 0 0 0 368.4912,698.6157" fill="#FFF7D6" style="stroke:#7A6A2A;stroke-width:0.5;"/><path d="M554.7183,698.6157 L554.7183,708.6157 L564.7183,708.6157 L554.7183,698.6157" fill="#FFF7D6" style="stroke:#7A6A2A;stroke-width:0.5;"/><a href="../articles/ammr-037.md" target="_top" title="../articles/ammr-037.md" xlink:actuate="onRequest" xlink:href="../articles/ammr-037.md" xlink:show="new" xlink:title="../articles/ammr-037.md" xlink:type="simple"><text fill="#000000" font-family="Arial" font-size="13" lengthAdjust="spacing" text-decoration="underline" textLength="96.0654" x="374.4912" y="715.8096">ART-AMMR-037</text></a><line style="stroke:#7A6A2A;stroke-width:1;" x1="368.4912" x2="429.0361" y1="726.0388" y2="726.0388"/><line style="stroke:#7A6A2A;stroke-width:1;" x1="368.4912" x2="429.0361" y1="728.0388" y2="728.0388"/><text fill="#000000" font-family="Arial" font-size="13" lengthAdjust="spacing" textLength="67.9136" x="432.6479" y="730.2583">M&#246;jliga sk&#228;l</text><line style="stroke:#7A6A2A;stroke-width:1;" x1="504.1733" x2="564.7183" y1="726.0388" y2="726.0388"/><line style="stroke:#7A6A2A;stroke-width:1;" x1="504.1733" x2="564.7183" y1="728.0388" y2="728.0388"/><text fill="#000000" font-family="Arial" font-size="13" lengthAdjust="spacing" textLength="175.2271" x="374.4912" y="745.707">- Personen l&#228;mnat EU &gt;9 m&#229;n</text><text fill="#000000" font-family="Arial" font-size="13" lengthAdjust="spacing" textLength="138.0107" x="374.4912" y="760.6558">- Avl&#228;gsnande verkst&#228;llt</text><text fill="#000000" font-family="Arial" font-size="13" lengthAdjust="spacing" textLength="151.7471" x="374.4912" y="775.6045">- 15 m&#229;n efter gr&#228;nsbeslut</text><text fill="#000000" font-family="Arial" font-size="13" lengthAdjust="spacing" textLength="164.7471" x="374.4912" y="790.5532">- Felaktig Eurodac-angivelse</text><rect fill="#F8F8F8" height="47.5977" rx="12.5" ry="12.5" style="stroke:#333333;stroke-width:0.5;" width="172.748" x="175.7432" y="724.6631"/><text fill="#000000" font-family="Arial" font-size="12" lengthAdjust="spacing" textLength="152.748" x="185.7432" y="745.9189">Visar att den inte &#228;r ansvarig</text><text fill="#000000" font-family="Arial" font-size="12" lengthAdjust="spacing" textLength="140.7305" x="185.7432" y="759.7178">(art. 37 &#8212; ansvar upph&#246;rt)</text><rect fill="#F8F8F8" height="33.7988" rx="12.5" ry="12.5" style="stroke:#333333;stroke-width:0.5;" width="126.0488" x="199.0928" y="819.7549"/><text fill="#000000" font-family="Arial" font-size="12" lengthAdjust="spacing" textLength="106.0488" x="209.0928" y="841.0107">Aviseringen avvisas</text><rect fill="#F8F8F8" height="47.5977" rx="12.5" ry="12.5" style="stroke:#333333;stroke-width:0.5;" width="191.4336" x="166.4004" y="885.9058"/><text fill="#000000" font-family="Arial" font-size="12" lengthAdjust="spacing" textLength="120.0762" x="176.4004" y="907.1616">Den aviserande staten</text><text fill="#000000" font-family="Arial" font-size="12" lengthAdjust="spacing" textLength="171.4336" x="176.4004" y="920.9604">genomf&#246;r ny ansvarsbed&#246;mning</text><ellipse cx="262.1172" cy="964.5034" fill="none" rx="11" ry="11" style="stroke:#222222;stroke-width:1;"/><ellipse cx="262.1172" cy="964.5034" fill="#222222" rx="6" ry="6" style="stroke:#222222;stroke-width:1;"/><rect fill="#F8F8F8" height="47.5977" rx="12.5" ry="12.5" style="stroke:#333333;stroke-width:0.5;" width="170.4688" x="584.7183" y="818.3081"/><text fill="#000000" font-family="Arial" font-size="12" lengthAdjust="spacing" textLength="100.0313" x="594.7183" y="839.564">Tyst bekr&#228;ftelse &#8212;</text><text fill="#000000" font-family="Arial" font-size="12" lengthAdjust="spacing" textLength="150.4688" x="594.7183" y="853.3628">underl&#229;tenhet = godtagande</text><rect fill="none" height="141.7456" style="stroke:#000000;stroke-width:1.5;" width="355.8262" x="291.0613" y="1017.5034"/><path d="M463.6814,1017.5034 L463.6814,1026.6021 L453.6814,1036.6021 L291.0613,1036.6021" fill="none" style="stroke:#000000;stroke-width:1.5;"/><text fill="#000000" font-family="Arial" font-size="14" lengthAdjust="spacing" textLength="162.6201" x="294.0613" y="1031.6353">&#214;verf&#246;ringsbeslut (art. 42)</text><path d="M485.1257,1053.5527 L485.1257,1069.5015 L465.1257,1073.5015 L485.1257,1077.5015 L485.1257,1093.4502 A0,0 0 0 0 485.1257,1093.4502 L636.8875,1093.4502 A0,0 0 0 0 636.8875,1093.4502 L636.8875,1063.5527 L626.8875,1053.5527 L485.1257,1053.5527 A0,0 0 0 0 485.1257,1053.5527" fill="#FFF7D6" style="stroke:#7A6A2A;stroke-width:0.5;"/><path d="M626.8875,1053.5527 L626.8875,1063.5527 L636.8875,1063.5527 L626.8875,1053.5527" fill="#FFF7D6" style="stroke:#7A6A2A;stroke-width:0.5;"/><a href="../rules/rule-ammr-042-001.md" target="_top" title="../rules/rule-ammr-042-001.md" xlink:actuate="onRequest" xlink:href="../rules/rule-ammr-042-001.md" xlink:show="new" xlink:title="../rules/rule-ammr-042-001.md" xlink:type="simple"><text fill="#000000" font-family="Arial" font-size="13" lengthAdjust="spacing" text-decoration="underline" textLength="130.7617" x="491.1257" y="1070.7466">RULE-AMMR-042-001</text></a><text fill="#000000" font-family="Arial" font-size="13" lengthAdjust="spacing" textLength="4.3291" x="491.1257" y="1085.6953">(</text><a href="../articles/ammr-042.md" target="_top" title="../articles/ammr-042.md" xlink:actuate="onRequest" xlink:href="../articles/ammr-042.md" xlink:show="new" xlink:title="../articles/ammr-042.md" xlink:type="simple"><text fill="#000000" font-family="Arial" font-size="13" lengthAdjust="spacing" text-decoration="underline" textLength="96.0654" x="495.4548" y="1085.6953">ART-AMMR-042</text></a><text fill="#000000" font-family="Arial" font-size="13" lengthAdjust="spacing" textLength="4.3291" x="591.5203" y="1085.6953">)</text><rect fill="#F8F8F8" height="33.7988" rx="12.5" ry="12.5" style="stroke:#333333;stroke-width:0.5;" width="164.0645" x="301.0613" y="1056.6021"/><text fill="#000000" font-family="Arial" font-size="12" lengthAdjust="spacing" textLength="144.0645" x="311.0613" y="1077.8579">Beslut fattas inom 2 veckor</text><rect fill="#F8F8F8" height="33.7988" rx="12.5" ry="12.5" style="stroke:#333333;stroke-width:0.5;" width="135.4063" x="315.3904" y="1113.4502"/><text fill="#000000" font-family="Arial" font-size="12" lengthAdjust="spacing" textLength="115.4063" x="325.3904" y="1134.7061">Personen underr&#228;ttas</text><rect fill="none" height="395.2427" style="stroke:#000000;stroke-width:1.5;" width="369.832" x="290.0583" y="1169.249"/><path d="M423.7683,1169.249 L423.7683,1178.3477 L413.7683,1188.3477 L290.0583,1188.3477" fill="none" style="stroke:#000000;stroke-width:1.5;"/><text fill="#000000" font-family="Arial" font-size="14" lengthAdjust="spacing" textLength="123.71" x="293.0583" y="1183.3809">R&#228;ttsmedel (art. 43)</text><path d="M476.1287,1253.6721 L476.1287,1269.6208 L456.1287,1273.6208 L476.1287,1277.6208 L476.1287,1293.5696 A0,0 0 0 0 476.1287,1293.5696 L627.8904,1293.5696 A0,0 0 0 0 627.8904,1293.5696 L627.8904,1263.6721 L617.8904,1253.6721 L476.1287,1253.6721 A0,0 0 0 0 476.1287,1253.6721" fill="#FFF7D6" style="stroke:#7A6A2A;stroke-width:0.5;"/><path d="M617.8904,1253.6721 L617.8904,1263.6721 L627.8904,1263.6721 L617.8904,1253.6721" fill="#FFF7D6" style="stroke:#7A6A2A;stroke-width:0.5;"/><a href="../rules/rule-ammr-043-001.md" target="_top" title="../rules/rule-ammr-043-001.md" xlink:actuate="onRequest" xlink:href="../rules/rule-ammr-043-001.md" xlink:show="new" xlink:title="../rules/rule-ammr-043-001.md" xlink:type="simple"><text fill="#000000" font-family="Arial" font-size="13" lengthAdjust="spacing" text-decoration="underline" textLength="130.7617" x="482.1287" y="1270.866">RULE-AMMR-043-001</text></a><text fill="#000000" font-family="Arial" font-size="13" lengthAdjust="spacing" textLength="121.3989" x="482.1287" y="1285.8147">R&#228;tt till &#246;verklagande</text><rect fill="#F8F8F8" height="33.7988" rx="12.5" ry="12.5" style="stroke:#333333;stroke-width:0.5;" width="146.0703" x="310.0583" y="1256.7214"/><text fill="#000000" font-family="Arial" font-size="12" lengthAdjust="spacing" textLength="126.0703" x="320.0583" y="1277.9773">&#214;verklagande inl&#228;mnas</text><rect fill="#F8F8F8" height="33.7988" rx="12.5" ry="12.5" style="stroke:#333333;stroke-width:0.5;" width="76.6602" x="344.7634" y="1361.894"/><text fill="#000000" font-family="Arial" font-size="12" lengthAdjust="spacing" textLength="56.6602" x="354.7634" y="1383.1499">Frist fryser</text><rect fill="#F8F8F8" height="33.7988" rx="12.5" ry="12.5" style="stroke:#333333;stroke-width:0.5;" width="110.0352" x="328.0759" y="1430.6929"/><text fill="#000000" font-family="Arial" font-size="12" lengthAdjust="spacing" textLength="90.0352" x="338.0759" y="1451.9487">Domstol beslutar</text><polygon fill="#FFFFFF" points="336.6228,1313.5696,429.5642,1313.5696,441.5642,1325.5696,429.5642,1337.5696,336.6228,1337.5696,324.6228,1325.5696,336.6228,1313.5696" style="stroke:#333333;stroke-width:0.5;"/><text fill="#000000" font-family="Arial" font-size="11" lengthAdjust="spacing" textLength="11.6177" x="387.0935" y="1347.8875">Ja</text><text fill="#000000" font-family="Arial" font-size="11" lengthAdjust="spacing" textLength="92.9414" x="336.6228" y="1329.563">Suspensiv verkan?</text><text fill="#000000" font-family="Arial" font-size="11" lengthAdjust="spacing" textLength="16.5054" x="441.5642" y="1323.2385">Nej</text><polygon fill="#FFFFFF" points="383.0935,1484.4917,395.0935,1496.4917,383.0935,1508.4917,371.0935,1496.4917,383.0935,1484.4917" style="stroke:#333333;stroke-width:0.5;"/><polygon fill="#FFFFFF" points="329.2832,1205.3477,436.9038,1205.3477,448.9038,1217.3477,436.9038,1229.3477,329.2832,1229.3477,317.2832,1217.3477,329.2832,1205.3477" style="stroke:#333333;stroke-width:0.5;"/><text fill="#000000" font-family="Arial" font-size="11" lengthAdjust="spacing" textLength="11.6177" x="387.0935" y="1239.6655">Ja</text><text fill="#000000" font-family="Arial" font-size="11" lengthAdjust="spacing" textLength="107.6206" x="329.2832" y="1221.3411">Personen &#246;verklagar?</text><text fill="#000000" font-family="Arial" font-size="11" lengthAdjust="spacing" textLength="16.5054" x="448.9038" y="1215.0166">Nej</text><polygon fill="#FFFFFF" points="383.0935,1528.4917,395.0935,1540.4917,383.0935,1552.4917,371.0935,1540.4917,383.0935,1528.4917" style="stroke:#333333;stroke-width:0.5;"/><rect fill="none" height="384.8325" style="stroke:#000000;stroke-width:1.5;" width="448.5205" x="217.8718" y="1574.4917"/><path d="M346.1335,1574.4917 L346.1335,1583.5903 L336.1335,1593.5903 L217.8718,1593.5903" fill="none" style="stroke:#000000;stroke-width:1.5;"/><text fill="#000000" font-family="Arial" font-size="14" lengthAdjust="spacing" textLength="118.2617" x="220.8718" y="1588.6235">&#214;verf&#246;ring (art. 46)</text><path d="M467.7761,1603.5903 L467.7761,1671.8596 L447.7761,1675.8596 L467.7761,1679.8596 L467.7761,1748.1289 A0,0 0 0 0 467.7761,1748.1289 L656.3923,1748.1289 A0,0 0 0 0 656.3923,1748.1289 L656.3923,1613.5903 L646.3923,1603.5903 L467.7761,1603.5903 A0,0 0 0 0 467.7761,1603.5903" fill="#FFF7D6" style="stroke:#7A6A2A;stroke-width:0.5;"/><path d="M646.3923,1603.5903 L646.3923,1613.5903 L656.3923,1613.5903 L646.3923,1603.5903" fill="#FFF7D6" style="stroke:#7A6A2A;stroke-width:0.5;"/><a href="../rules/rule-ammr-046-001.md" target="_top" title="../rules/rule-ammr-046-001.md" xlink:actuate="onRequest" xlink:href="../rules/rule-ammr-046-001.md" xlink:show="new" xlink:title="../rules/rule-ammr-046-001.md" xlink:type="simple"><text fill="#000000" font-family="Arial" font-size="13" lengthAdjust="spacing" text-decoration="underline" textLength="130.7617" x="473.7761" y="1620.7842">RULE-AMMR-046-001</text></a><text fill="#000000" font-family="Arial" font-size="13" lengthAdjust="spacing" textLength="49.1182" x="473.7761" y="1635.7329">Normalt:</text><text fill="#000000" font-family="Arial" font-size="13" font-weight="bold" lengthAdjust="spacing" textLength="65.0317" x="526.5061" y="1635.7329">6 m&#229;nader</text><text fill="#000000" font-family="Arial" font-size="13" lengthAdjust="spacing" textLength="59.2427" x="473.7761" y="1650.6816">Vid f&#246;rvar:</text><text fill="#000000" font-family="Arial" font-size="13" font-weight="bold" lengthAdjust="spacing" textLength="52.7617" x="536.6306" y="1650.6816">4 veckor</text><text fill="#000000" font-family="Arial" font-size="13" lengthAdjust="spacing" textLength="84.5508" x="473.7761" y="1665.6304">Vid avvikande:</text><text fill="#000000" font-family="Arial" font-size="13" font-weight="bold" lengthAdjust="spacing" textLength="72.2617" x="561.9387" y="1665.6304">18 m&#229;nader</text><text fill="#000000" font-family="Arial" font-size="13" lengthAdjust="spacing" textLength="4.3291" x="473.7761" y="1680.5791">(</text><a href="../articles/ammr-046.md" target="_top" title="../articles/ammr-046.md" xlink:actuate="onRequest" xlink:href="../articles/ammr-046.md" xlink:show="new" xlink:title="../articles/ammr-046.md" xlink:type="simple"><text fill="#000000" font-family="Arial" font-size="13" lengthAdjust="spacing" text-decoration="underline" textLength="96.0654" x="478.1052" y="1680.5791">ART-AMMR-046</text></a><text fill="#000000" font-family="Arial" font-size="13" lengthAdjust="spacing" textLength="4.3291" x="574.1707" y="1680.5791">)</text><text fill="#000000" font-family="Arial" font-size="13" lengthAdjust="spacing" textLength="12.9873" x="473.7761" y="1695.5278">---</text><line style="stroke:#7A6A2A;stroke-width:1;" x1="467.7761" x2="478.2761" y1="1705.7571" y2="1705.7571"/><line style="stroke:#7A6A2A;stroke-width:1;" x1="467.7761" x2="478.2761" y1="1707.7571" y2="1707.7571"/><text fill="#000000" font-family="Arial" font-size="13" lengthAdjust="spacing" textLength="160.3926" x="481.8879" y="1709.9766">Konsekvens vid missad frist</text><line style="stroke:#7A6A2A;stroke-width:1;" x1="645.8923" x2="656.3923" y1="1705.7571" y2="1705.7571"/><line style="stroke:#7A6A2A;stroke-width:1;" x1="645.8923" x2="656.3923" y1="1707.7571" y2="1707.7571"/><text fill="#000000" font-family="Arial" font-size="13" lengthAdjust="spacing" textLength="114.8799" x="473.7761" y="1725.4253">Ansvaret &#246;verg&#229;r till</text><text fill="#000000" font-family="Arial" font-size="13" lengthAdjust="spacing" textLength="157.5298" x="473.7761" y="1740.374">den stat som inte &#246;verf&#246;rde</text><rect fill="#F8F8F8" height="33.7988" rx="12.5" ry="12.5" style="stroke:#333333;stroke-width:0.5;" width="129.3652" x="318.4109" y="1658.9602"/><a href="../rules/rule-ammr-046-001.md" target="_top" title="../rules/rule-ammr-046-001.md" xlink:actuate="onRequest" xlink:href="../rules/rule-ammr-046-001.md" xlink:show="new" xlink:title="../rules/rule-ammr-046-001.md" xlink:type="simple"><text fill="#000000" font-family="Arial" font-size="12" lengthAdjust="spacing" text-decoration="underline" textLength="109.3652" x="328.4109" y="1680.2161">&#214;verf&#246;ring verkst&#228;lls</text></a><polygon fill="#FFFFFF" points="344.2712,1768.1289,421.9158,1768.1289,433.9158,1780.1289,421.9158,1792.1289,344.2712,1792.1289,332.2712,1780.1289,344.2712,1768.1289" style="stroke:#333333;stroke-width:0.5;"/><text fill="#000000" font-family="Arial" font-size="11" lengthAdjust="spacing" textLength="77.6445" x="344.2712" y="1784.1223">&#214;verf&#246;ring i tid?</text><text fill="#000000" font-family="Arial" font-size="11" lengthAdjust="spacing" textLength="11.6177" x="320.6536" y="1777.7979">Ja</text><text fill="#000000" font-family="Arial" font-size="11" lengthAdjust="spacing" textLength="16.5054" x="433.9158" y="1777.7979">Nej</text><rect fill="#F8F8F8" height="47.5977" rx="12.5" ry="12.5" style="stroke:#333333;stroke-width:0.5;" width="116.7031" x="244.5427" y="1802.1289"/><text fill="#000000" font-family="Arial" font-size="12" lengthAdjust="spacing" textLength="96.7031" x="254.5427" y="1823.3848">Person &#229;terf&#246;rs till</text><text fill="#000000" font-family="Arial" font-size="12" lengthAdjust="spacing" textLength="68.0332" x="254.5427" y="1837.1836">ansvarig stat</text><rect fill="#F8F8F8" height="47.5977" rx="12.5" ry="12.5" style="stroke:#333333;stroke-width:0.5;" width="130.0449" x="237.8718" y="1869.7266"/><text fill="#000000" font-family="Arial" font-size="12" lengthAdjust="spacing" textLength="110.0449" x="247.8718" y="1890.9824">Ansvarig stat pr&#246;var/</text><text fill="#000000" font-family="Arial" font-size="12" lengthAdjust="spacing" textLength="95.3906" x="247.8718" y="1904.7813">slutf&#246;r pr&#246;vningen</text><rect fill="#F8F8F8" height="47.5977" rx="12.5" ry="12.5" style="stroke:#333333;stroke-width:0.5;" width="150.752" x="387.9167" y="1802.1289"/><text fill="#000000" font-family="Arial" font-size="12" lengthAdjust="spacing" textLength="106.043" x="397.9167" y="1823.3848">Ansvaret &#246;verg&#229;r till</text><text fill="#000000" font-family="Arial" font-size="12" lengthAdjust="spacing" textLength="130.752" x="397.9167" y="1837.1836">den stat d&#228;r personen &#228;r</text><polygon fill="#FFFFFF" points="383.0935,1923.3242,395.0935,1935.3242,383.0935,1947.3242,371.0935,1935.3242,383.0935,1923.3242" style="stroke:#333333;stroke-width:0.5;"/><ellipse cx="383.0935" cy="1990.3242" fill="none" rx="11" ry="11" style="stroke:#222222;stroke-width:1;"/><ellipse cx="383.0935" cy="1990.3242" fill="#222222" rx="6" ry="6" style="stroke:#222222;stroke-width:1;"/><line style="stroke:#181818;stroke-width:1;" x1="383.0935" x2="383.0935" y1="174.5938" y2="194.5938"/><polygon fill="#181818" points="379.0935,184.5938,383.0935,194.5938,387.0935,184.5938,383.0935,188.5938" style="stroke:#181818;stroke-width:1;"/><line style="stroke:#181818;stroke-width:1;" x1="383.0935" x2="383.0935" y1="228.3926" y2="264.4399"/><polygon fill="#181818" points="379.0935,254.4399,383.0935,264.4399,387.0935,254.4399,383.0935,258.4399" style="stroke:#181818;stroke-width:1;"/><line style="stroke:#181818;stroke-width:1;" x1="383.0935" x2="383.0935" y1="67.0986" y2="113.1973"/><polygon fill="#181818" points="379.0935,103.1973,383.0935,113.1973,387.0935,103.1973,383.0935,107.1973" style="stroke:#181818;stroke-width:1;"/><line style="stroke:#181818;stroke-width:1;" x1="383.0935" x2="383.0935" y1="312.0376" y2="474.4509"/><polygon fill="#181818" points="379.0935,464.4509,383.0935,474.4509,387.0935,464.4509,383.0935,468.4509" style="stroke:#181818;stroke-width:1;"/><line style="stroke:#181818;stroke-width:1;" x1="262.1172" x2="262.1172" y1="772.2607" y2="819.7549"/><polygon fill="#181818" points="258.1172,809.7549,262.1172,819.7549,266.1172,809.7549,262.1172,813.7549" style="stroke:#181818;stroke-width:1;"/><line style="stroke:#181818;stroke-width:1;" x1="262.1172" x2="262.1172" y1="853.5537" y2="885.9058"/><polygon fill="#181818" points="258.1172,875.9058,262.1172,885.9058,266.1172,875.9058,262.1172,879.9058" style="stroke:#181818;stroke-width:1;"/><line style="stroke:#181818;stroke-width:1;" x1="262.1172" x2="262.1172" y1="933.5034" y2="953.5034"/><polygon fill="#181818" points="258.1172,943.5034,262.1172,953.5034,266.1172,943.5034,262.1172,947.5034" style="stroke:#181818;stroke-width:1;"/><line style="stroke:#181818;stroke-width:1;" x1="88.7002" x2="88.7002" y1="678.6157" y2="711.2646"/><polygon fill="#181818" points="84.7002,701.2646,88.7002,711.2646,92.7002,701.2646,88.7002,705.2646" style="stroke:#181818;stroke-width:1;"/><line style="stroke:#181818;stroke-width:1;" x1="88.7002" x2="88.7002" y1="745.0635" y2="995.5034"/><polygon fill="#181818" points="84.7002,985.5034,88.7002,995.5034,92.7002,985.5034,88.7002,989.5034" style="stroke:#181818;stroke-width:1;"/><line style="stroke:#181818;stroke-width:1;" x1="262.1172" x2="262.1172" y1="678.6157" y2="724.6631"/><polygon fill="#181818" points="258.1172,714.6631,262.1172,724.6631,266.1172,714.6631,262.1172,718.6631" style="stroke:#181818;stroke-width:1;"/><line style="stroke:#181818;stroke-width:1;" x1="150.8313" x2="228.7134" y1="666.6157" y2="666.6157"/><polygon fill="#181818" points="218.7134,662.6157,228.7134,666.6157,218.7134,670.6157,222.7134,666.6157" style="stroke:#181818;stroke-width:1;"/><line style="stroke:#181818;stroke-width:1;" x1="383.0935" x2="383.0935" y1="508.2498" y2="639.6157"/><line style="stroke:#181818;stroke-width:1;" x1="383.0935" x2="88.7002" y1="639.6157" y2="639.6157"/><line style="stroke:#181818;stroke-width:1;" x1="88.7002" x2="88.7002" y1="639.6157" y2="654.6157"/><polygon fill="#181818" points="84.7002,644.6157,88.7002,654.6157,92.7002,644.6157,88.7002,648.6157" style="stroke:#181818;stroke-width:1;"/><line style="stroke:#181818;stroke-width:1;" x1="295.521" x2="669.9526" y1="666.6157" y2="666.6157"/><line style="stroke:#181818;stroke-width:1;" x1="669.9526" x2="669.9526" y1="666.6157" y2="818.3081"/><polygon fill="#181818" points="665.9526,808.3081,669.9526,818.3081,673.9526,808.3081,669.9526,812.3081" style="stroke:#181818;stroke-width:1;"/><line style="stroke:#181818;stroke-width:1;" x1="669.9526" x2="669.9526" y1="865.9058" y2="995.5034"/><polygon fill="#181818" points="665.9526,985.5034,669.9526,995.5034,673.9526,985.5034,669.9526,989.5034" style="stroke:#181818;stroke-width:1;"/><line style="stroke:#181818;stroke-width:1;" x1="88.7002" x2="669.9526" y1="995.5034" y2="995.5034"/><line style="stroke:#181818;stroke-width:1;" x1="383.0935" x2="383.0935" y1="1090.4009" y2="1113.4502"/><polygon fill="#181818" points="379.0935,1103.4502,383.0935,1113.4502,387.0935,1103.4502,383.0935,1107.4502" style="stroke:#181818;stroke-width:1;"/><line style="stroke:#181818;stroke-width:1;" x1="383.0935" x2="383.0935" y1="995.5034" y2="1056.6021"/><polygon fill="#181818" points="379.0935,1046.6021,383.0935,1056.6021,387.0935,1046.6021,383.0935,1050.6021" style="stroke:#181818;stroke-width:1;"/><line style="stroke:#181818;stroke-width:1;" x1="383.0935" x2="383.0935" y1="1395.6929" y2="1430.6929"/><polygon fill="#181818" points="379.0935,1420.6929,383.0935,1430.6929,387.0935,1420.6929,383.0935,1424.6929" style="stroke:#181818;stroke-width:1;"/><line style="stroke:#181818;stroke-width:1;" x1="383.0935" x2="383.0935" y1="1337.5696" y2="1361.894"/><polygon fill="#181818" points="379.0935,1351.894,383.0935,1361.894,387.0935,1351.894,383.0935,1355.894" style="stroke:#181818;stroke-width:1;"/><line style="stroke:#181818;stroke-width:1;" x1="441.5642" x2="453.5642" y1="1325.5696" y2="1325.5696"/><polygon fill="#181818" points="449.5642,1403.1929,453.5642,1413.1929,457.5642,1403.1929,453.5642,1407.1929" style="stroke:#181818;stroke-width:1;"/><line style="stroke:#181818;stroke-width:1;" x1="453.5642" x2="453.5642" y1="1325.5696" y2="1496.4917"/><line style="stroke:#181818;stroke-width:1;" x1="453.5642" x2="395.0935" y1="1496.4917" y2="1496.4917"/><polygon fill="#181818" points="405.0935,1492.4917,395.0935,1496.4917,405.0935,1500.4917,401.0935,1496.4917" style="stroke:#181818;stroke-width:1;"/><line style="stroke:#181818;stroke-width:1;" x1="383.0935" x2="383.0935" y1="1464.4917" y2="1484.4917"/><polygon fill="#181818" points="379.0935,1474.4917,383.0935,1484.4917,387.0935,1474.4917,383.0935,1478.4917" style="stroke:#181818;stroke-width:1;"/><line style="stroke:#181818;stroke-width:1;" x1="383.0935" x2="383.0935" y1="1290.5203" y2="1313.5696"/><polygon fill="#181818" points="379.0935,1303.5696,383.0935,1313.5696,387.0935,1303.5696,383.0935,1307.5696" style="stroke:#181818;stroke-width:1;"/><line style="stroke:#181818;stroke-width:1;" x1="383.0935" x2="383.0935" y1="1229.3477" y2="1256.7214"/><polygon fill="#181818" points="379.0935,1246.7214,383.0935,1256.7214,387.0935,1246.7214,383.0935,1250.7214" style="stroke:#181818;stroke-width:1;"/><line style="stroke:#181818;stroke-width:1;" x1="448.9038" x2="637.8904" y1="1217.3477" y2="1217.3477"/><polygon fill="#181818" points="633.8904,1365.7441,637.8904,1375.7441,641.8904,1365.7441,637.8904,1369.7441" style="stroke:#181818;stroke-width:1;"/><line style="stroke:#181818;stroke-width:1;" x1="637.8904" x2="637.8904" y1="1217.3477" y2="1540.4917"/><line style="stroke:#181818;stroke-width:1;" x1="637.8904" x2="395.0935" y1="1540.4917" y2="1540.4917"/><polygon fill="#181818" points="405.0935,1536.4917,395.0935,1540.4917,405.0935,1544.4917,401.0935,1540.4917" style="stroke:#181818;stroke-width:1;"/><line style="stroke:#181818;stroke-width:1;" x1="383.0935" x2="383.0935" y1="1508.4917" y2="1528.4917"/><polygon fill="#181818" points="379.0935,1518.4917,383.0935,1528.4917,387.0935,1518.4917,383.0935,1522.4917" style="stroke:#181818;stroke-width:1;"/><line style="stroke:#181818;stroke-width:1;" x1="383.0935" x2="383.0935" y1="1147.249" y2="1205.3477"/><polygon fill="#181818" points="379.0935,1195.3477,383.0935,1205.3477,387.0935,1195.3477,383.0935,1199.3477" style="stroke:#181818;stroke-width:1;"/><line style="stroke:#181818;stroke-width:1;" x1="302.8943" x2="302.8943" y1="1849.7266" y2="1869.7266"/><polygon fill="#181818" points="298.8943,1859.7266,302.8943,1869.7266,306.8943,1859.7266,302.8943,1863.7266" style="stroke:#181818;stroke-width:1;"/><line style="stroke:#181818;stroke-width:1;" x1="332.2712" x2="302.8943" y1="1780.1289" y2="1780.1289"/><line style="stroke:#181818;stroke-width:1;" x1="302.8943" x2="302.8943" y1="1780.1289" y2="1802.1289"/><polygon fill="#181818" points="298.8943,1792.1289,302.8943,1802.1289,306.8943,1792.1289,302.8943,1796.1289" style="stroke:#181818;stroke-width:1;"/><line style="stroke:#181818;stroke-width:1;" x1="433.9158" x2="463.2927" y1="1780.1289" y2="1780.1289"/><line style="stroke:#181818;stroke-width:1;" x1="463.2927" x2="463.2927" y1="1780.1289" y2="1802.1289"/><polygon fill="#181818" points="459.2927,1792.1289,463.2927,1802.1289,467.2927,1792.1289,463.2927,1796.1289" style="stroke:#181818;stroke-width:1;"/><line style="stroke:#181818;stroke-width:1;" x1="302.8943" x2="302.8943" y1="1917.3242" y2="1935.3242"/><line style="stroke:#181818;stroke-width:1;" x1="302.8943" x2="371.0935" y1="1935.3242" y2="1935.3242"/><polygon fill="#181818" points="361.0935,1931.3242,371.0935,1935.3242,361.0935,1939.3242,365.0935,1935.3242" style="stroke:#181818;stroke-width:1;"/><line style="stroke:#181818;stroke-width:1;" x1="463.2927" x2="463.2927" y1="1849.7266" y2="1935.3242"/><line style="stroke:#181818;stroke-width:1;" x1="463.2927" x2="395.0935" y1="1935.3242" y2="1935.3242"/><polygon fill="#181818" points="405.0935,1931.3242,395.0935,1935.3242,405.0935,1939.3242,401.0935,1935.3242" style="stroke:#181818;stroke-width:1;"/><line style="stroke:#181818;stroke-width:1;" x1="383.0935" x2="383.0935" y1="1692.759" y2="1768.1289"/><polygon fill="#181818" points="379.0935,1758.1289,383.0935,1768.1289,387.0935,1758.1289,383.0935,1762.1289" style="stroke:#181818;stroke-width:1;"/><line style="stroke:#181818;stroke-width:1;" x1="383.0935" x2="383.0935" y1="1552.4917" y2="1658.9602"/><polygon fill="#181818" points="379.0935,1648.9602,383.0935,1658.9602,387.0935,1648.9602,383.0935,1652.9602" style="stroke:#181818;stroke-width:1;"/><line style="stroke:#181818;stroke-width:1;" x1="383.0935" x2="383.0935" y1="1947.3242" y2="1979.3242"/><polygon fill="#181818" points="379.0935,1969.3242,383.0935,1979.3242,387.0935,1969.3242,383.0935,1973.3242" style="stroke:#181818;stroke-width:1;"/><?plantuml-src bLRRJXn747tVhsWvBu2ysEoInG4vqH90TcAm1SOl5W_DJi_GdfwULNVlH2YAb9VyGPGlW5_O7vW_oPVaLCrbPo--14jcwQgkgZxdLDK67OmIvLz1kI0JQICLbtCNIqSVWzWACbNYLaxIRV7ldtyBd4dpIJaPX4o3BdHGmSUcd4Ugr_EfjbFSp8I_ar7-cxQ9YANngcDvTJzLpcYR_foRt8bZWz2RpDT8Jn-K26xM3O02vSo4izo62vafCNPQcevTJhYiU_5xJuXZH4zSFhDHbUwxinVqZoovGuBwTCW_E3tHCijjj7wDVpeE6sx_qId2va5zfe2piuEJqMe11-FHU316Y9uFqeLU3s623ZgtuidrT1hAXqaQdd34mtVAUPnFoyVWoeSubbveeQp8L6HKvX4Wm6qMf1MpwLJTbO_6W0yR0StagJXzy-Rq4Wu9Q1RsNaZhotaAPusF5hyfm14bEfsvF9AJFjajSPaecsSa3y_szvoUPO4WXNGwuSl2gKXQU3YLQ1ySr18XUXsEhZ8ySB-ZIeLu-L9SfTeO2xyi3u8rDxcJBb6miSkO4q2GvOEhuaDPFdWWOqpOPP_N5WNMJuAplrLHES-uybl0C2zyvNU2C8o7T2A7O48GEpj0KpbwczpPOQyfmuo00PK9F1LkzBegnjR7ZxkxpzpCAC__zsMMkVxpuQZ__FdURXQ9o-itf_tn-VbbStXpiusRoaRyUgAwm_6uq5uvgXG5SIbrCuejEEsA_RtjcltDUVVtchnNA155GugJ5E-JdmjySxE1YAy5xpogEhovuNjleJrbRb7gK-6L1J50T20ADKbpL-EfOYHlHD2lfDk1ah2OKE8c9-KRNxvlqrNu2T7lznlHlBQsadUZ4ZpUHj95SUwocI6fe32st2e0yKpRI4-qSgk1tXvVDI6gkKD8sJle15rMA4T8QWlMo2C2l8tU9Kj2MSyMdzwR263Y7ecgXliBh2zrpQrA2HJqVqlwxh2cNSTYwwhWAi1ZW-nFsoBSePgju_PgXT7Xue0QggQS25UOnXJijItA1tfgVU63zgGML4tFexTofpNlh8ZYgeO7dOwd2OFESc7xY5rMz5GhQeNRuS4ojyE3MaRCnNav_sGOsHIztT02kiIxfYF1R6Q1sEcr-F47aPMFjlKP5p0ctdBl47FrX6WTzhxd2xKS4w1aCIYycIrSpfIXtPQqOfKsqGKXLmcv8PE1QpkNL57W3-ahA0vF-8IiN4mb53QrStJZiAgk-v1FQxw8hGIQ8h-QhlVtVY4OzW4dR9ejw_UbIFAeopyw85wHOVbFKOq-9A-nQ1GuQCRESNKSGo6qRxeg_FOvCjWqHmQTER9v50nMHi5WPPIsEn60y_DvM1CFo--yf6FFewfvNxU_sXZO512E0MYB3lj5riWpM6maKhMjjEY_9Fzr88QRW1XsW122Ywrspw8Uf5oN8C-6cPzY2kc2DI_jMjse_CnX6OlOtKEHHytXIPv1QKPKjClQKAdkGdtQRjBfkBTo_3KbDH2FlhAvsesvT7dHklx_RAfDwtT_r07s0fj1cd28_JJYGI2Xbtf3VT2HeFneCxBlB-ylibA3fyG2sVTUh0ROBD_HYdn76pRPhxdrAYr0eIYG9zFUuxjGp8ojVGCYEIJbesDrj2k9TuX7NrR3Urw3oOffzL9BVGbgZJZHkj3hhvdjzoA_IBVqRQ-UTikxREfGW7JFgb46PV6qurFBi_AejwQomszwOKHhgVrkXZ-MfXfFpVy0?></g></svg>